<?xml version="1.0" standalone="no"?>
<!DOCTYPE svg PUBLIC "-//W3C//DTD SVG 1.1//EN" "http://www.w3.org/Graphics/SVG/1.1/DTD/svg11.dtd" >
<svg>
<metadata>
Created by FontForge 20120731 at Mon Oct 24 23:49:35 2016
 By ,,,
URW Software, Copyright 1994 by URW
</metadata>
<defs>
<font id="BodoniAntT-ReguItal" horiz-adv-x="1024" >
  <font-face 
    font-family="Bodoni Antiqua URW"
    font-weight="400"
    font-style="italic"
    font-stretch="normal"
    units-per-em="2048"
    panose-1="2 2 6 2 7 2 6 7 3 3"
    ascent="1474"
    descent="-574"
    x-height="806"
    cap-height="1365"
    bbox="-395 -587 2120 1759"
    underline-thickness="104"
    underline-position="-182"
    slope="135"
    unicode-range="U+0020-F002"
  />
<missing-glyph horiz-adv-x="512" 
d="M51 0v1365h410v-1365h-410zM410 51v1263h-308v-1263h308z" />
    <glyph glyph-name=".notdef" horiz-adv-x="512" 
d="M51 0v1365h410v-1365h-410zM410 51v1263h-308v-1263h308z" />
    <glyph glyph-name="glyph1" horiz-adv-x="0" 
 />
    <glyph glyph-name="glyph2" horiz-adv-x="512" 
 />
    <glyph glyph-name="space" unicode=" " horiz-adv-x="512" 
 />
    <glyph glyph-name="exclam" unicode="!" horiz-adv-x="629" 
d="M374 429h-48q64 421 94 779q9 104 46 144q31 33 83 33q46 0 76 -26q34 -28 34 -68q0 -32 -24 -104q-5 -15 -82 -223q-101 -284 -163 -484zM292 226q49 0 84 -36q36 -37 36 -87t-36 -87q-35 -36 -86 -36q-52 0 -88 36t-36 87q0 52 36 87q37 36 90 36z" />
    <glyph glyph-name="quotedbl" unicode="&#x22;" horiz-adv-x="586" 
d="M338 845h-49l-52 334q-8 49 -8 85q0 50 22 84q24 37 61 37q42 0 68 -41q19 -32 19 -79q0 -33 -8 -86zM604 845h-49l-53 334q-8 52 -8 85q0 50 22 84q24 37 62 37q42 0 67 -41q20 -31 20 -79q0 -30 -9 -86z" />
    <glyph glyph-name="numbersign" unicode="#" 
d="M520 906h226l118 418h148l-118 -418h174l-7 -55h-182l-101 -360h174l-7 -55h-183l-122 -436h-149l123 436h-226l-122 -436h-149l123 436h-176l8 55h183l102 360h-175l7 55h183l117 418h149zM505 851l-101 -360h225l102 360h-226z" />
    <glyph glyph-name="dollar" unicode="$" 
d="M712 1293l-107 -504q137 -100 189 -149q146 -140 146 -296q0 -145 -106 -241q-138 -125 -366 -125q-12 0 -36 1l-41 -192h-59l40 192q-131 20 -212 69q-75 46 -110 114q-26 50 -26 100q0 60 40 99q31 30 70 30q36 0 63 -25q30 -28 30 -70q0 -25 -16 -64q-22 -50 -22 -74
q0 -110 192 -137l118 554q-128 89 -193 154q-116 114 -116 257q0 159 123 256q124 98 349 98l38 178h59l-37 -178q112 -16 189 -81q93 -78 93 -182q0 -41 -18 -68q-23 -36 -66 -36q-34 0 -57 26q-21 24 -21 58q0 21 13 59q11 31 11 50q0 52 -52 89q-39 27 -102 38zM652 1296
h-16q-112 0 -198 -59q-82 -56 -82 -152q0 -87 75 -160q37 -36 122 -98zM441 21q136 -1 225 58q57 38 84 97q20 44 20 86q0 98 -104 192q-27 25 -115 85z" />
    <glyph glyph-name="percent" unicode="%" horiz-adv-x="1509" 
d="M530 1337q79 0 138 -52q85 -76 85 -208q0 -82 -33.5 -167.5t-90.5 -145.5q-101 -109 -227 -109q-78 0 -137 45q-93 72 -93 212q0 82 31.5 162.5t85.5 140.5q112 122 241 122zM523 1299q-90 0 -140 -115q-38 -90 -66 -236q-18 -90 -18 -144q0 -111 105 -111q57 0 97 41
q47 48 96 259q31 133 31 194q0 112 -105 112zM1223 1326l-769 -1326h-65l769 1326h65zM1217 670q78 0 138 -53q85 -75 85 -207q0 -82 -33.5 -167.5t-90.5 -145.5q-101 -109 -227 -109q-78 0 -137 45q-93 72 -93 212q0 82 31.5 162.5t85.5 140.5q112 122 241 122zM1210 632
q-90 0 -140 -115q-39 -92 -67 -236q-17 -90 -17 -144q0 -111 105 -111q57 0 97 41q47 48 96 259q31 133 31 194q0 112 -105 112z" />
    <glyph glyph-name="ampersand" unicode="&#x26;" horiz-adv-x="1502" 
d="M1409 221l32 -22q-62 -92 -120 -139q-99 -80 -220 -80q-155 0 -284 138q-58 -46 -84 -63q-120 -76 -272 -76q-194 0 -310 113q-97 95 -97 234q0 301 460 463q-36 128 -36 232q0 185 113 281q99 83 245 83q141 0 217 -82q51 -56 51 -129q0 -201 -384 -345
q86 -251 205 -516q58 85 161 259q87 147 140 195q53 49 119 49q53 0 84 -32q29 -31 29 -80q0 -45 -28 -74q-25 -26 -62 -26q-38 0 -59 24q-18 20 -18 50q0 13 4 32q2 13 2 16q0 22 -19 22q-13 0 -33 -19q-24 -24 -119 -183q-136 -220 -178 -274q67 -125 99 -159
q59 -65 129 -65q111 0 233 173zM709 864q89 40 158 108q93 91 93 221q0 68 -34 107q-39 44 -110 44q-74 0 -122 -45q-52 -50 -52 -131q0 -90 67 -304zM526 750q-118 -63 -176 -146q-75 -108 -75 -256q0 -142 69 -227q67 -83 171 -83q130 0 270 115q-130 182 -259 597z" />
    <glyph glyph-name="quotesingle" unicode="'" horiz-adv-x="320" 
d="M338 845h-49l-52 334q-8 49 -8 85q0 50 22 84q24 37 61 37q42 0 68 -41q19 -32 19 -79q0 -33 -8 -86z" />
    <glyph glyph-name="parenleft" unicode="(" horiz-adv-x="680" 
d="M803 1365h64q-230 -151 -387 -416q-106 -181 -169 -398q-49 -172 -49 -345q0 -327 186 -588h-56q-316 382 -316 746q0 204 102 407q121 238 382 434q90 68 243 160z" />
    <glyph glyph-name="parenright" unicode=")" horiz-adv-x="679" 
d="M-92 -382h-64q231 153 387 416q107 182 169 399q49 171 49 344q0 328 -186 588h56q316 -381 316 -746q0 -204 -102 -406q-121 -239 -382 -435q-90 -67 -243 -160z" />
    <glyph glyph-name="asterisk" unicode="*" 
d="M671 977l70 -90q62 -78 81 -105q23 -35 23 -64q0 -41 -35 -61q-21 -12 -41 -12q-51 0 -71 55q-19 51 -39 160l-19 104l-21 4l-64 -95q-23 -34 -34 -52q-39 -60 -63 -81q-25 -22 -53 -22q-27 0 -48 18q-27 25 -27 57q0 36 34 63q41 32 140 86l93 51l-3 21l-109 32
q-9 2 -60 16q-88 23 -113 47q-24 23 -24 53q0 27 18 49q21 27 55 27q28 0 68 -30q44 -35 106 -93l76 -72l20 9l-4 114q-5 87 -5 112q0 115 76 115q34 0 57 -22q20 -20 20 -50q0 -42 -66 -181l-46 -95l15 -16l107 39q34 13 58 22q76 29 107 29q42 0 64 -31q13 -19 13 -46
q0 -36 -28 -57q-21 -16 -62 -16q-53 0 -151 13l-105 13z" />
    <glyph glyph-name="plus" unicode="+" 
d="M528 626h-380v72h380v360h72v-360h381v-72h-381v-360h-72v360z" />
    <glyph glyph-name="comma" unicode="," horiz-adv-x="520" 
d="M48 -296l-20 32q247 138 247 269q0 28 -21 28q-8 0 -20 -14q-28 -33 -79 -33q-43 0 -70 31q-28 31 -28 76q0 53 41 88q36 31 86 31q61 0 106 -48q50 -52 50 -124q0 -110 -105 -212q-67 -65 -187 -124z" />
    <glyph glyph-name="hyphen" unicode="-" horiz-adv-x="396" 
d="M13 478h396l-29 -136h-396z" />
    <glyph glyph-name="period" unicode="." horiz-adv-x="520" 
d="M210 226q49 0 84 -36q36 -37 36 -87t-36 -87q-35 -36 -86 -36q-52 0 -88 36t-36 87q0 52 36 87q37 36 90 36z" />
    <glyph glyph-name="slash" unicode="/" horiz-adv-x="637" 
d="M716 1365l-720 -1747h-119l717 1747h122z" />
    <glyph glyph-name="zero" unicode="0" 
d="M702 1345q125 0 207 -104q114 -144 114 -370q0 -198 -76 -404q-70 -187 -186 -316q-154 -171 -322 -171q-124 0 -208 89q-126 136 -126 381q0 170 57 345t154 303q116 155 252 217q66 30 134 30zM695 1304q-94 0 -162 -84q-86 -107 -175 -468q-86 -349 -86 -532
q0 -107 58 -160q43 -39 107 -39q98 0 170 92q81 101 182 544q71 308 71 441q0 118 -59 169q-42 37 -106 37z" />
    <glyph glyph-name="one" unicode="1" 
d="M545 42h250l-9 -42h-660l9 42h218l239 1121q10 47 10 61q0 36 -32 49q-27 12 -95 12q-57 0 -113 -1l8 40q45 -1 66 -1q155 0 389 32z" />
    <glyph glyph-name="two" unicode="2" 
d="M923 333l-72 -333h-820v111l66 58q264 231 338 304q167 165 251 312q78 136 78 278q0 109 -55 168q-54 58 -145 58q-111 0 -192 -68q-62 -52 -62 -117q0 -41 54 -50q85 -14 85 -91q0 -41 -30 -70q-25 -25 -64 -25q-52 0 -83 37q-41 49 -41 121q0 119 99 214
q111 105 290 105q169 0 268 -89q84 -77 84 -199q0 -132 -101 -257q-98 -122 -362 -352q-90 -79 -286 -247l-44 -37h478q96 1 127 13q47 20 71 78q10 26 22 78h46z" />
    <glyph glyph-name="three" unicode="3" 
d="M545 716q135 -12 216 -69q125 -87 125 -239q0 -79 -40 -156t-111 -137q-162 -135 -386 -135q-155 0 -232 88q-54 61 -54 139q0 64 42 104q30 28 68 28q40 0 66 -27q25 -25 25 -61q0 -34 -24 -62q-22 -27 -60 -39q-29 -9 -29 -30q0 -20 13 -36q23 -29 71 -46.5t105 -17.5
q139 0 227 99q112 127 112 327q0 246 -213 246q-26 0 -77 -10q-49 -10 -52 -10q-30 0 -30 30q0 34 44 34q9 0 45 -4q17 -2 36 -2q134 0 226 119q84 110 84 263q0 92 -50 147q-41 44 -114 44q-83 0 -140 -38q-37 -25 -37 -53q0 -11 28 -44q19 -22 19 -52q0 -37 -23 -61
q-25 -27 -65 -27t-65 27q-23 25 -23 65q0 36 22.5 76t58.5 68q106 81 268 81q160 0 249 -93q64 -65 64 -165q0 -145 -137 -252q-65 -51 -155 -86q-18 -7 -97 -33z" />
    <glyph glyph-name="four" unicode="4" 
d="M530 392h-480v51l737 881h119l-188 -881h190l24 111h48l-70 -329h-48l35 167h-189l-75 -352h177l-9 -40h-532l9 40h177zM541 443l146 688l-579 -688h433z" />
    <glyph glyph-name="five" unicode="5" 
d="M388 1162l-102 -405q106 48 224 48q144 0 251 -77q142 -102 142 -264q0 -170 -135 -309q-100 -104 -244 -150q-80 -25 -162 -25q-129 0 -214 75q-69 62 -69 153q0 55 29 92q33 41 80 41q35 0 59 -21q27 -25 27 -63q0 -67 -75 -98q-28 -12 -28 -31q0 -24 25 -48
q58 -56 154 -56q151 0 234 109q51 67 80.5 158.5t29.5 183.5q0 136 -72 213q-58 62 -159 62q-90 0 -201 -58h-49l159 634h473q60 0 82 13q11 8 33 44h44q-85 -147 -113 -178q-30 -33 -91 -40q-17 -3 -98 -3h-314z" />
    <glyph glyph-name="six" unicode="6" 
d="M1030 1402l-9 -45q-112 -4 -214 -47q-238 -108 -367 -377q-47 -99 -72 -208q115 157 286 157q112 0 194 -68q61 -49 95 -128.5t34 -172.5q0 -211 -153 -373q-150 -160 -343 -160q-147 0 -243 103q-126 135 -126 358q0 281 195 545q199 270 489 372q106 37 234 44z
M623 840q-64 0 -129.5 -47t-111.5 -126q-50 -88 -77 -220q-18 -90 -18 -170q0 -146 73 -214q45 -41 119 -41q142 0 220 176q38 87 65 247q18 105 18 177q0 112 -48 171q-39 47 -111 47z" />
    <glyph glyph-name="seven" unicode="7" 
d="M343 1162l-37 -178h-48l72 342h732q-29 -79 -60 -140q-36 -71 -141 -238q-183 -289 -246 -476q-39 -119 -64 -311q-13 -102 -34 -132q-34 -49 -92 -49q-43 0 -69 31q-31 36 -31 87q0 108 141 340q65 109 325 506q68 104 133 218h-581z" />
    <glyph glyph-name="eight" unicode="8" 
d="M646 689q126 -27 199 -97q87 -84 87 -205q0 -123 -86 -230q-142 -177 -393 -177q-179 0 -281 94q-96 89 -96 232q0 195 175 311q96 63 223 82q-237 71 -237 279q0 160 139 270q124 97 297 97q161 0 256 -89q89 -83 89 -200q0 -157 -148 -266q-91 -68 -224 -101zM675 1304
q-116 0 -182 -100q-37 -56 -62 -161q-21 -86 -21 -161q0 -79 49 -125q45 -43 118 -43q133 0 203 136q27 54 46 146q15 77 15 141q0 167 -166 167zM551 673q-118 0 -194 -110q-45 -65 -74 -198q-18 -87 -18 -163q0 -88 52 -135q51 -46 136 -46q156 0 224 157q27 65 45 180
q12 76 12 130q0 97 -56 143q-53 42 -127 42z" />
    <glyph glyph-name="nine" unicode="9" 
d="M117 -86l8 39q214 30 371 168q183 164 255 444q-112 -130 -271 -130q-134 0 -225 92q-99 101 -99 269q0 214 150 378q156 171 365 171q133 0 220 -73q72 -60 107 -159q33 -93 33 -194q0 -253 -149 -501q-177 -293 -482 -430q-125 -56 -283 -74zM673 1304
q-137 0 -221 -162q-57 -110 -89 -270q-19 -98 -19 -173q0 -124 62 -182q41 -38 101 -38q144 0 241 168q50 86 79 229q21 103 21 193q0 235 -175 235z" />
    <glyph glyph-name="colon" unicode=":" horiz-adv-x="520" 
d="M337 813q49 0 84 -36q36 -37 36 -87t-36 -87q-35 -36 -86 -36q-52 0 -88 36t-36 87q0 52 36 87q37 36 90 36zM208 226q49 0 84 -36q36 -37 36 -87t-36 -87q-35 -36 -86 -36q-52 0 -88 36t-36 87q0 52 36 87q37 36 90 36z" />
    <glyph glyph-name="semicolon" unicode=";" horiz-adv-x="520" 
d="M309 809q49 0 84 -36q36 -37 36 -87t-36 -87q-35 -36 -86 -36q-52 0 -88 36t-36 87q0 52 36 87q37 36 90 36zM48 -296l-20 32q247 138 247 269q0 28 -21 28q-8 0 -20 -14q-28 -33 -79 -33q-43 0 -70 31q-28 31 -28 76q0 53 41 88q36 31 86 31q61 0 106 -48
q50 -52 50 -124q0 -110 -105 -212q-67 -65 -187 -124z" />
    <glyph glyph-name="less" unicode="&#x3c;" 
d="M989 1238v-56l-687 -452l687 -457v-150l-842 557v12z" />
    <glyph glyph-name="equal" unicode="=" 
d="M148 808h833v-72h-833v72zM148 589h833v-72h-833v72z" />
    <glyph glyph-name="greater" unicode="&#x3e;" 
d="M147 123v56l687 452l-687 457v150l842 -557v-11z" />
    <glyph glyph-name="question" unicode="?" horiz-adv-x="712" 
d="M260 419h-43q4 133 44 236q35 89 113 153q37 31 106 73q120 74 159 116q59 64 59 144q0 85 -64 142q-74 66 -180 66q-120 0 -186 -73q-29 -32 -29 -55q0 -17 25 -21q84 -11 84 -87q0 -29 -19 -52q-25 -29 -63 -29q-35 0 -61 23q-39 37 -39 99q0 48 25.5 95t68.5 78
q82 58 194 58q151 0 241 -100q76 -85 76 -219q0 -175 -134 -296q-69 -61 -227 -137q-70 -33 -94 -59q-57 -59 -56 -155zM205 226q49 0 84 -36q36 -37 36 -87t-36 -87q-35 -36 -86 -36q-52 0 -88 36t-36 87q0 52 36 87q37 36 90 36z" />
    <glyph glyph-name="at" unicode="@" horiz-adv-x="1401" 
d="M1010 1007h151l-167 -460q-45 -123 -45 -160q0 -43 55 -43q117 0 227 115q131 138 131 330q0 208 -165 356q-170 154 -401 154q-250 0 -431 -174q-193 -184 -193 -458q0 -285 202 -470q181 -165 422 -165q234 0 421 165h86q-210 -224 -507 -224q-270 0 -467 181
q-107 98 -164.5 231t-57.5 281q0 295 208 497q96 94 221.5 145t258.5 51q121 0 239 -42.5t204 -118.5q188 -162 188 -410q0 -160 -83 -282q-145 -213 -378 -213q-144 0 -144 120q0 8 1 26q-108 -134 -223 -134q-82 0 -142 64q-58 64 -58 153q0 95 47.5 198.5t127.5 184.5
q118 119 255 119q120 0 148 -109zM855 987q-45 0 -94.5 -40t-89.5 -109q-57 -99 -101 -227q-37 -109 -37 -169q0 -49 28 -77q23 -24 63 -24q112 0 191 155q55 106 93.5 218t38.5 164q0 44 -24 77q-24 32 -68 32z" />
    <glyph glyph-name="A" unicode="A" horiz-adv-x="1216" 
d="M763 436h-400l-286 -395h195l-9 -41h-400l9 41h144l995 1324h35l-104 -1324h173l-9 -41h-564l9 41h178zM767 477l46 549l-410 -549h364z" />
    <glyph glyph-name="B" unicode="B" horiz-adv-x="1261" 
d="M156 41l273 1283h-164l9 41h482q193 0 250 -13q119 -29 175 -117q48 -76 48 -166q0 -89 -47 -163.5t-133 -120.5q-95 -51 -234 -71q339 -69 339 -335q0 -123 -72 -219q-83 -111 -239 -142q-91 -18 -299 -18h-561l9 41h164zM522 737h122q119 0 165 11q82 19 119 70
q43 59 72 180q19 82 19 167q0 100 -58 135q-32 19 -88 23q-14 1 -113 1h-113zM374 41h156q147 0 196 14q102 29 145 147q23 61 41 158.5t18 156.5q0 120 -107 158q-60 21 -189 21h-120z" />
    <glyph glyph-name="C" unicode="C" horiz-adv-x="1202" 
d="M1240 1365l-84 -396h-41q2 39 2 63q0 144 -52 219q-66 93 -183 93q-218 0 -367 -279q-76 -142 -121 -348q-37 -170 -37 -319q0 -180 82 -279q81 -98 219 -98q157 0 284 138q72 77 143 221h41l-81 -380h-40l-51 90q-180 -117 -339 -117q-139 0 -268 83q-119 76 -177 212
q-48 113 -48 234q0 242 136 476q143 245 367 354q123 60 236 60q162 0 269 -125l69 98h41z" />
    <glyph glyph-name="D" unicode="D" horiz-adv-x="1352" 
d="M156 41l273 1283h-164l9 41h439q166 0 243 -18q198 -49 294 -205q86 -140 86 -331q0 -244 -131 -466q-146 -246 -392 -316q-78 -22 -185 -26q-67 -3 -165 -3h-480l9 41h164zM374 41h89q183 0 258 24q134 44 220 196q89 159 135 404q35 186 35 334q0 191 -112 270
q-64 45 -142 51q-45 4 -115 4h-95z" />
    <glyph glyph-name="E" unicode="E" horiz-adv-x="1193" 
d="M156 41l273 1283h-164l9 41h983l-73 -344h-41q10 56 10 88q0 117 -70 174q-37 30 -111 37q-40 4 -164 4h-161l-127 -596h88q136 1 194 81q31 46 54 156h41l-115 -542h-41q23 103 23 148q0 66 -50 96q-35 20 -117 20h-85l-138 -646h156q159 1 239 19q225 52 307 352h41
l-88 -412h-1046l9 41h164z" />
    <glyph glyph-name="F" unicode="F" horiz-adv-x="1116" 
d="M156 41l273 1283h-164l9 41h1003l-85 -401h-41q10 73 10 123q0 151 -99 206q-45 24 -100 28q-39 3 -94 3h-221l-126 -594h162q137 1 195 81q31 46 54 157h41l-115 -542h-41q22 102 22 147q0 67 -50 96q-35 20 -117 20h-160l-138 -648h164l-9 -41h-546l9 41h164z" />
    <glyph glyph-name="G" unicode="G" horiz-adv-x="1347" 
d="M1296 1365l-83 -392h-41q1 29 1 44q0 158 -85 244q-37 37 -94.5 60t-114.5 23q-109 0 -203 -75t-165 -218q-76 -153 -120 -367q-33 -164 -33 -310q0 -195 88 -284q68 -69 185 -69q102 0 172 61q108 95 152 385h-187l9 41h568l-9 -41h-133q-43 -204 -157 -327
q-80 -86 -201 -130q-103 -37 -210 -37q-214 0 -348 146q-154 168 -154 438q0 245 134 458q140 222 359 321q125 56 242 56q197 0 308 -139l79 112h41z" />
    <glyph glyph-name="H" unicode="H" horiz-adv-x="1456" 
d="M156 41l273 1283h-164l9 41h546l-9 -41h-164l-125 -589h547l126 589h-164l8 41h547l-9 -41h-164l-273 -1283h164l-9 -41h-546l9 41h164l139 653h-548l-139 -653h164l-9 -41h-546l9 41h164z" />
    <glyph glyph-name="I" unicode="I" horiz-adv-x="690" 
d="M156 41l273 1283h-164l9 41h546l-9 -41h-164l-273 -1283h164l-9 -41h-546l9 41h164z" />
    <glyph glyph-name="J" unicode="J" horiz-adv-x="775" 
d="M541 1324h-164l9 41h546l-9 -41h-164l-201 -944q-43 -204 -93 -303q-65 -127 -151 -185q-83 -56 -174 -56q-92 0 -153 55q-58 52 -58 122q0 49 32 82q32 32 73 32q37 0 63 -24q27 -25 27 -65q0 -47 -39 -85q-19 -18 -19 -36q0 -13 13 -24q19 -15 46 -15q55 0 92 56
q42 65 82 255z" />
    <glyph glyph-name="K" unicode="K" horiz-adv-x="1366" 
d="M156 41l273 1283h-164l9 41h546l-9 -41h-164l-273 -1283h164l-9 -41h-546l9 41h164zM725 830l435 -789h146l-9 -41h-577l9 41h196l-379 688l640 595h-212l9 41h430l-9 -41h-150z" />
    <glyph glyph-name="L" unicode="L" horiz-adv-x="1129" 
d="M156 41l273 1283h-164l9 41h546l-9 -41h-164l-273 -1283h234q130 0 191 23q138 57 237 335h41l-85 -399h-1009l9 41h164z" />
    <glyph glyph-name="M" unicode="M" horiz-adv-x="1569" 
d="M149 41l273 1283h-164l9 41h413l86 -1011l513 1011h420l-9 -41h-164l-273 -1283h164l-9 -41h-546l9 41h164l273 1283l-677 -1324h-55l-107 1324l-272 -1283h163l-9 -41h-375l9 41h164z" />
    <glyph glyph-name="N" unicode="N" horiz-adv-x="1345" 
d="M149 41l273 1283h-164l9 41h407l398 -966l196 925h-164l9 41h376l-9 -41h-164l-282 -1324h-32l-536 1307l-269 -1266h163l-9 -41h-375l9 41h164z" />
    <glyph glyph-name="O" unicode="O" horiz-adv-x="1329" 
d="M855 1392q87 0 171 -38.5t145 -107.5q142 -160 142 -418q0 -176 -70.5 -343.5t-201.5 -300.5q-208 -211 -436 -211q-188 0 -315 136q-162 173 -162 432q0 216 121 431q125 224 338 344q133 76 268 76zM850 1344q-53 0 -108 -22t-95 -60q-133 -123 -222 -431
q-72 -247 -72 -465q0 -153 46 -229q69 -116 201 -116q195 0 315 236q86 170 132 400q41 201 41 366q0 192 -90 270q-58 51 -148 51z" />
    <glyph glyph-name="P" unicode="P" horiz-adv-x="1175" 
d="M156 41l273 1283h-164l9 41h525q175 0 223 -10q123 -27 185 -112q57 -78 57 -183q0 -131 -79 -237q-54 -73 -143 -119.5t-199 -59.5q-100 -12 -230 -12q-48 0 -112 3l-127 -594h164l-9 -41h-546l9 41h164zM509 677q51 -4 110 -4q132 0 189 14q91 24 136 95q39 62 67 206
q20 105 20 182q0 100 -72 135q-39 19 -159 19h-153z" />
    <glyph glyph-name="Q" unicode="Q" horiz-adv-x="1331" 
d="M688 -20q-5 -42 -5 -69q0 -204 164 -237q55 -10 205 -12v-41q-117 -12 -192 -12q-221 0 -329 120q-74 82 -74 199q0 32 8 68q-83 30 -145 84q-77 67 -127 171q-65 135 -65 291q0 215 121 430q129 229 338 345q134 75 266 75q89 0 173 -38.5t145 -107.5q142 -161 142 -418
q0 -281 -169 -521q-125 -178 -301 -272q-80 -42 -155 -55zM850 1344q-53 0 -108 -22t-95 -60q-132 -123 -222 -432q-72 -246 -72 -465q0 -153 46 -229q70 -116 201 -116q195 0 315 236q86 170 132 400q41 201 41 367q0 192 -90 270q-58 51 -148 51z" />
    <glyph glyph-name="R" unicode="R" horiz-adv-x="1342" 
d="M156 41l273 1283h-164l9 41h562q134 0 184 -11q118 -26 172 -101q52 -71 52 -165q0 -95 -52.5 -171t-149.5 -122q-106 -49 -292 -60q166 -51 247 -138q87 -93 87 -362q-1 -99 8 -130q22 -76 102 -76q25 0 75 12l-9 -41q-86 -27 -148 -27q-157 0 -222 116q-35 62 -47 167
q-5 38 -9 149q-5 125 -17 171q-36 150 -223 146h-75l-145 -681h164l-9 -41h-546l9 41h164zM528 763h79q141 0 225 24q106 30 148 152q41 116 41 220q0 103 -70 144q-36 21 -142 21h-162z" />
    <glyph glyph-name="S" unicode="S" horiz-adv-x="1041" 
d="M1053 1365l-81 -382h-41q-1 89 -10 134q-23 124 -125 185q-71 43 -155 43q-110 0 -189 -64q-88 -71 -88 -171q0 -78 76 -138q42 -33 169 -105q151 -86 216 -140q131 -109 131 -278q0 -178 -117 -316q-136 -160 -342 -160q-181 0 -335 136l-109 -109h-41l94 442h41
q-2 -35 -2 -52q0 -143 84 -241q49 -58 129 -94q76 -34 145 -34q72 0 144.5 35t119.5 92q52 64 52 148q0 94 -77 169q-57 55 -202 143q-128 78 -186 128q-112 97 -112 250q0 90 36.5 175t99.5 139q108 93 268 93q169 0 289 -124l78 96h40z" />
    <glyph glyph-name="T" unicode="T" horiz-adv-x="1128" 
d="M378 41l273 1283h-39q-136 -1 -200 -30q-161 -78 -237 -345h-41l88 416h1087l-88 -416h-41q10 72 10 122q0 145 -71 204q-43 36 -102 43q-46 6 -108 6h-40l-273 -1283h164l-9 -41h-546l9 41h164z" />
    <glyph glyph-name="U" unicode="U" horiz-adv-x="1291" 
d="M1229 1324h-164l9 41h375l-9 -41h-164l-165 -777q-39 -187 -65 -266q-56 -172 -160 -241q-104 -67 -260 -67q-208 0 -325 111q-95 91 -95 244q0 78 34 238l161 758h-164l9 41h546l-8 -41h-164l-173 -810q-34 -162 -34 -245q0 -121 73 -185q72 -63 186 -63q90 0 163.5 42
t118.5 119q50 88 109 365z" />
    <glyph glyph-name="V" unicode="V" horiz-adv-x="1225" 
d="M617 1324l-97 -1018l774 1018h-210l9 41h388l-9 -41h-125l-1011 -1324h-53l118 1324h-181l9 41h557l-9 -41h-160z" />
    <glyph glyph-name="W" unicode="W" horiz-adv-x="1669" 
d="M1350 1324l-301 -397l-57 -604l763 1001h-183l9 41h351l-9 -41h-110l-1008 -1324h-45l65 692l-526 -692h-47l125 1324h-150l9 41h1253l-9 -41h-130zM1294 1324h-208l-32 -311zM885 1324h-304l-95 -1001l345 458z" />
    <glyph glyph-name="X" unicode="X" horiz-adv-x="1318" 
d="M802 784l258 -743h171l-10 -41h-579l9 41h182l-190 541l-432 -541h219l-9 -41h-435l9 41h155l477 598l-240 685h-166l8 41h574l-9 -41h-180l169 -487l389 487h-223l9 41h441l-8 -41h-158z" />
    <glyph glyph-name="Y" unicode="Y" horiz-adv-x="1220" 
d="M836 641l-128 -600h164l-9 -41h-546l9 41h164l124 585l-259 698h-162l9 41h569l-8 -41h-177l228 -628l414 628h-187l9 41h399l-9 -41h-155z" />
    <glyph glyph-name="Z" unicode="Z" horiz-adv-x="1077" 
d="M1189 1324l-953 -1283h269q154 1 216 20q167 53 277 365h41l-91 -426h-966v54l948 1270h-264q-130 -1 -184 -21q-136 -48 -216 -297h-41l77 359h895z" />
    <glyph glyph-name="bracketleft" unicode="[" horiz-adv-x="680" 
d="M223 -341h176l-9 -41h-373l372 1747h373l-9 -41h-175z" />
    <glyph glyph-name="backslash" unicode="\" horiz-adv-x="887" 
d="M283 1365h114l409 -1747h-112z" />
    <glyph glyph-name="bracketright" unicode="]" horiz-adv-x="680" 
d="M474 1324h-175l9 41h373l-372 -1747h-373l9 41h175z" />
    <glyph glyph-name="asciicircum" unicode="^" 
d="M1134 582h-91l-392 606l-407 -607h-241l573 853h14z" />
    <glyph glyph-name="underscore" unicode="_" 
d="M95 -182h946v-104h-946v104z" />
    <glyph glyph-name="grave" unicode="`" 
d="M559 1256l154 -290l-23 -17l-287 270q-11 11 -11 21q0 16 25 16h142z" />
    <glyph glyph-name="a" unicode="a" horiz-adv-x="994" 
d="M719 806h178l-124 -511q-38 -159 -38 -202q0 -47 39 -47q80 0 195 231l29 -16q-74 -146 -126 -201q-78 -81 -163 -81q-67 0 -105 63q-20 34 -25 96q-43 -64 -76 -93q-76 -65 -168 -65q-99 0 -176 74q-92 88 -92 242q0 215 159 386q135 144 285 144q134 0 182 -128z
M539 782q-41 0 -83.5 -29.5t-73.5 -79.5q-66 -107 -110 -279q-34 -132 -34 -217q0 -79 46 -125q30 -30 76 -30q129 0 198 168q40 100 77 247q30 121 30 182q0 77 -41 125q-33 38 -85 38z" />
    <glyph glyph-name="b" unicode="b" horiz-adv-x="931" 
d="M356 1324h-164l10 41h341l-160 -666q90 127 217 127q109 0 192 -77q89 -85 89 -227q0 -119 -55 -231t-153 -194q-139 -117 -291 -117q-132 0 -206 79q-63 68 -63 174q0 81 45 268zM581 788q-53 0 -105 -41q-43 -34 -73.5 -87t-58.5 -143q-76 -246 -76 -353q0 -66 42 -110
q34 -36 87 -36q140 0 213 197q40 106 68 231t28 194q0 66 -36 108q-35 40 -89 40z" />
    <glyph glyph-name="c" unicode="c" horiz-adv-x="799" 
d="M720 233l27 -23q-163 -230 -357 -230q-150 0 -243 119q-74 95 -74 227q0 103 45.5 201t125.5 168q151 131 326 131q93 0 151 -46t58 -112q0 -42 -26 -70q-30 -33 -72 -33q-28 0 -49 16q-27 21 -27 54q0 43 55 76q15 10 15 19q0 23 -26 40q-29 19 -70 19q-113 0 -203 -134
q-51 -77 -86 -213q-30 -120 -30 -224q0 -199 157 -199q94 0 185 80q53 47 118 134z" />
    <glyph glyph-name="d" unicode="d" horiz-adv-x="1015" 
d="M858 1324h-178l10 41h355l-276 -1148q-20 -103 -20 -124q0 -47 41 -47q38 0 87.5 59.5t105.5 172.5l29 -16q-63 -130 -114 -187q-87 -96 -177 -96q-120 0 -130 156q-111 -156 -249 -156q-95 0 -169 70q-95 90 -95 244q0 104 42 205.5t117 180.5q141 148 295 148
q125 0 176 -125zM559 789q-63 0 -119 -56q-43 -42 -75 -106.5t-65 -176.5q-51 -171 -51 -269q0 -82 41 -128q32 -36 83 -36q69 0 132 63q63 64 96 174q83 274 83 376q0 72 -38 118q-35 41 -87 41z" />
    <glyph glyph-name="e" unicode="e" horiz-adv-x="829" 
d="M714 212l26 -23q-168 -210 -353 -210q-129 0 -219 92q-94 97 -94 253q0 109 48.5 210.5t134.5 171.5q89 73 211 105q64 16 125 16q112 0 184 -66q52 -46 52 -117q0 -89 -74 -149q-108 -86 -319 -116q-77 -11 -164 -11q-10 -89 -10 -150q0 -198 153 -198q77 0 156 56
q64 45 143 136zM278 399q137 9 236 61q108 58 153 145q22 44 22 84q0 42 -29 70q-32 31 -82 31q-133 0 -223 -167q-52 -97 -77 -224z" />
    <glyph glyph-name="f" unicode="f" horiz-adv-x="582" 
d="M269 765h-180l10 41h180q62 249 160 389q134 191 308 191q75 0 112 -38q29 -29 29 -70q0 -39 -29 -66q-26 -26 -65 -26q-30 0 -49 18q-23 20 -23 51q0 35 35 55q14 9 14 22q0 20 -26 20q-51 0 -92 -39q-68 -64 -115 -198q-22 -63 -54 -195l-27 -114h187l-10 -41h-187
l-153 -638q-49 -205 -88 -304q-81 -207 -204 -303q-83 -66 -180 -66q-68 0 -112 33q-38 28 -38 72q0 33 21 57t54 24q31 0 49 -19q16 -17 16 -42q0 -24 -18 -48q-9 -12 -9 -19q0 -24 51 -24q52 0 97 48q39 41 67 126q16 49 62 239z" />
    <glyph glyph-name="g" unicode="g" horiz-adv-x="901" 
d="M239 322q-114 -45 -114 -128q0 -36 23 -55q31 -26 128 -26q238 1 313 -13q98 -17 148 -97q39 -63 39 -151t-37.5 -168t-104.5 -135q-127 -105 -334 -105q-173 0 -282 73q-98 65 -98 173q0 107 107 187q59 44 152 66q-62 12 -96 37q-66 47 -66 126q0 145 194 242
q-66 78 -66 166q0 130 90 216q46 44 116.5 70t145.5 26q195 0 256 -163q34 192 133 192q30 0 53 -20q26 -22 26 -56q0 -31 -20 -53q-19 -21 -48 -21q-39 0 -59 39q-7 16 -16 16q-22 0 -39 -132q-15 -118 -44 -179q-33 -73 -94 -120q-87 -67 -208 -67q-112 0 -198 60z
M509 789q-80 0 -135 -83q-33 -49 -56 -145q-17 -73 -17 -130q0 -71 43 -109q31 -27 77 -27q96 0 152 114q23 48 40 117.5t17 118.5q0 73 -39 113q-29 31 -82 31zM373 -73q-142 0 -207 -39q-60 -35 -90 -98q-22 -46 -22 -95q0 -75 47 -126q73 -77 222 -77q207 0 330 138
q63 71 63 157q0 83 -71 111q-72 29 -272 29z" />
    <glyph glyph-name="h" unicode="h" horiz-adv-x="1030" 
d="M377 1324h-164l10 41h342l-185 -769q185 231 364 231q60 0 107 -31q53 -35 53 -100q0 -38 -22 -130l-92 -384q-17 -70 -17 -92q0 -48 36 -48q42 0 108 81q41 50 85 144l35 -13q-66 -132 -132 -198q-77 -76 -167 -76q-55 0 -94 29q-42 32 -42 84q0 46 28 161l92 385
q10 42 10 61q0 30 -21 46q-20 14 -44 14q-39 0 -92.5 -28.5t-100.5 -75.5q-69 -67 -108 -155q-19 -42 -40 -130l-90 -371h-177z" />
    <glyph glyph-name="i" unicode="i" horiz-adv-x="527" 
d="M242 765h-161l10 41h338l-153 -640q-13 -54 -13 -76q0 -49 42 -49q40 0 101 70q42 48 88 156l33 -15q-63 -142 -130 -202q-80 -71 -168 -71q-61 0 -99 35t-38 92q0 34 23 129zM400 1311q43 0 72 -32q26 -29 26 -68q0 -43 -31 -73q-30 -28 -71 -28q-43 0 -73 31
q-26 27 -26 69q0 45 33 75q29 26 70 26z" />
    <glyph glyph-name="j" unicode="j" horiz-adv-x="468" 
d="M262 765h-168l10 41h346l-194 -806q-41 -168 -76 -258q-63 -160 -158 -234q-67 -54 -143 -54q-65 0 -110 36q-39 32 -39 79q0 37 24 62q22 22 56 22q31 0 49 -19q19 -18 19 -49q0 -20 -13 -47q-6 -14 -6 -22q0 -26 32 -26q31 0 58 38q25 35 52 147zM413 1311q43 0 72 -32
q26 -29 26 -68q0 -43 -31 -73q-30 -28 -71 -28q-43 0 -73 31q-26 27 -26 69q0 45 33 75q29 26 70 26z" />
    <glyph glyph-name="k" unicode="k" horiz-adv-x="979" 
d="M377 1324h-164l10 41h342l-211 -877q70 27 128 27q8 0 22 -1q69 74 118 163q47 83 83 111q48 38 103 38q59 0 103 -38q37 -33 37 -82q0 -39 -26 -64q-25 -25 -62 -25q-29 0 -50 18q-23 20 -23 48q0 35 36 63q9 7 9 19q0 24 -30 24q-26 0 -54 -20q-32 -22 -82 -107
q-63 -106 -106 -148q171 -40 171 -190q0 -40 -20 -187q-4 -27 -4 -44q0 -42 32 -42q31 0 77 58q50 62 92 170l33 -14q-47 -124 -107 -194q-78 -91 -171 -91q-55 0 -90 32q-42 37 -42 97q0 46 50 258q7 31 7 52q0 50 -59 69q-43 -30 -70 -40q-38 -15 -85 -15q-14 0 -33 3
l-105 -436h-177z" />
    <glyph glyph-name="l" unicode="l" horiz-adv-x="527" 
d="M370 1324h-164l10 41h341l-288 -1202q-14 -57 -14 -76q0 -41 44 -41q76 0 191 225l32 -16q-58 -122 -119 -188q-82 -87 -186 -87q-60 0 -95 38q-31 34 -31 86q0 62 44 242z" />
    <glyph glyph-name="m" unicode="m" horiz-adv-x="1462" 
d="M263 765h-163l10 41h340l-51 -213q139 233 311 233q78 0 123 -44q41 -40 41 -104q0 -33 -13 -85q136 233 310 233q75 0 120 -45q40 -40 40 -100q0 -45 -22 -139l-68 -279q-36 -152 -36 -181q0 -18 14 -27q11 -7 21 -7q45 0 96.5 59.5t104.5 172.5l33 -17
q-66 -146 -145 -214q-82 -69 -171 -69q-50 0 -84 30q-40 35 -40 94q0 37 34 176l66 276q30 117 30 146q0 58 -68 58q-62 0 -140 -89q-105 -119 -163 -358l-75 -313h-178l146 604q16 67 16 96q0 27 -18 44q-17 16 -45 16q-73 0 -154 -99q-98 -117 -149 -332l-80 -329h-177z
" />
    <glyph glyph-name="n" unicode="n" horiz-adv-x="1023" 
d="M263 765h-164l10 41h341l-51 -213q150 233 336 233q76 0 122 -43q40 -38 40 -89q0 -35 -16 -101l-92 -385q-23 -95 -23 -119q0 -43 39 -43q76 0 198 232l30 -17q-141 -281 -302 -281q-58 0 -94 31q-41 35 -41 96q0 38 21 127l91 378q14 57 14 72q0 76 -72 76
q-82 0 -169 -110q-97 -122 -150 -341l-75 -309h-177z" />
    <glyph glyph-name="o" unicode="o" horiz-adv-x="918" 
d="M551 826q116 0 207 -89q104 -101 104 -258q0 -198 -163 -362q-136 -137 -298 -137q-120 0 -213 86q-113 105 -113 268q0 188 150 340q77 78 180 121q75 31 146 31zM549 792q-105 0 -171 -112q-56 -98 -93 -263q-30 -138 -30 -233q0 -92 53 -138q36 -32 87 -32
q127 0 190 163q41 106 72 257q23 109 23 184q0 174 -131 174z" />
    <glyph glyph-name="p" unicode="p" horiz-adv-x="977" 
d="M263 765h-164l10 41h341l-35 -146q106 166 244 166q112 0 191 -100q75 -95 75 -229q0 -129 -71 -256q-78 -139 -193 -205q-99 -56 -198 -56q-124 0 -181 127l-148 -612h178l-10 -41h-474l10 41h119zM631 781q-50 0 -97 -37q-75 -59 -127 -177q-43 -100 -70 -203.5
t-27 -172.5q0 -80 40 -126q40 -47 102 -47q73 0 129 64q82 92 133 301q39 162 39 253q0 145 -122 145z" />
    <glyph glyph-name="q" unicode="q" horiz-adv-x="969" 
d="M458 -505l150 626q-106 -141 -258 -141q-112 0 -194 84q-89 93 -89 231q0 112 52.5 225.5t141.5 194.5q124 112 263 112q155 0 216 -157l33 136h177l-314 -1311h147l-10 -41h-459l10 41h134zM557 782q-62 0 -118 -50q-84 -75 -143 -256q-58 -176 -58 -294q0 -85 46 -128
q38 -36 94 -36q57 0 118 40q74 50 118 147q42 92 67.5 199.5t25.5 188.5q0 94 -46 144q-41 45 -104 45z" />
    <glyph glyph-name="r" unicode="r" horiz-adv-x="695" 
d="M263 765h-164l10 41h341l-52 -219q130 239 261 239q40 0 65 -21q29 -24 29 -63q0 -37 -25 -62q-25 -27 -62 -27q-51 0 -84 59q-11 19 -22 19q-22 0 -62 -51q-113 -146 -175 -403l-67 -277h-177z" />
    <glyph glyph-name="s" unicode="s" horiz-adv-x="673" 
d="M109 230q32 0 51 -21t19 -51q0 -41 -32 -75q-10 -10 -10 -17q0 -12 12 -20q37 -25 110 -25q91 0 150 49q46 38 46 94q0 37 -26 71q-20 27 -73 68q-81 62 -132 110q-94 89 -94 173q0 110 105 185q79 56 178 56q95 0 155 -52q41 -34 41 -81q0 -29 -16 -48q-21 -26 -57 -26
q-27 0 -45 16q-19 18 -19 45q0 21 15 41t15 30q0 38 -88 38q-69 0 -114 -32q-43 -30 -43 -80q0 -47 35 -86q24 -26 99 -79q98 -69 138 -113q56 -62 56 -144q0 -116 -95 -197q-91 -79 -223 -79q-119 0 -191 71q-43 43 -43 99q0 38 25 61q20 19 51 19z" />
    <glyph glyph-name="t" unicode="t" horiz-adv-x="561" 
d="M242 765h-120l10 41q115 43 192 111q69 61 134 166h38l-67 -277h154l-9 -41h-155l-139 -582q-19 -78 -19 -103q0 -36 34 -36q43 0 99 66q54 63 105 168l31 -18q-136 -280 -301 -280q-52 0 -90 29q-46 36 -46 97q0 39 25 141z" />
    <glyph glyph-name="u" unicode="u" horiz-adv-x="1005" 
d="M241 765h-163l10 41h337l-104 -433q-54 -230 -54 -260q0 -33 21 -53q19 -17 45 -17q59 0 127 61q95 85 154 245q23 63 60 224l56 233h177l-134 -558q-30 -126 -30 -161q0 -39 30 -39q83 0 204 234l30 -15q-70 -138 -128 -199q-84 -88 -173 -88q-51 0 -85 29
q-46 38 -46 113q0 29 10 82q-140 -224 -316 -224q-75 0 -121 40q-50 43 -50 109q0 45 13 98l36 147z" />
    <glyph glyph-name="v" unicode="v" horiz-adv-x="860" 
d="M68 530l-32 19q72 145 127 198q80 79 172 79q61 0 95 -35q29 -28 29 -68q0 -49 -23 -144l-65 -272q-31 -129 -31 -185q0 -44 31 -68q21 -17 52 -17q67 0 136 62q132 121 196 313q42 126 42 197q0 33 -34 37q-96 13 -96 94q0 42 29 66q22 20 52 20q45 0 71 -38
q29 -42 29 -110q0 -152 -82 -336q-98 -223 -236 -311q-80 -51 -169 -51q-99 0 -153 64q-38 45 -38 105t36 210l68 282q15 64 15 84q0 37 -33 37q-84 0 -188 -232z" />
    <glyph glyph-name="w" unicode="w" horiz-adv-x="1342" 
d="M809 806h175q-66 -287 -70 -303q-46 -212 -46 -327q0 -78 22 -110q20 -29 64 -29q109 0 226 235q99 199 99 339q0 30 -12 41q-8 8 -31 10q-24 2 -41 13q-36 23 -36 66q0 37 27 62q23 23 54 23q87 0 87 -138q0 -152 -63 -319q-59 -158 -143 -262q-103 -127 -222 -127
q-80 0 -127 55q-58 67 -58 197q0 86 31 247q-111 -265 -211 -381q-103 -118 -218 -118q-73 0 -119 41q-39 36 -39 102q0 36 9 72l89 376q30 126 30 156q0 33 -33 33q-44 0 -97 -65q-47 -58 -90 -160l-29 17q58 140 119 202q72 72 159 72q56 0 93 -31q42 -36 42 -94
q0 -44 -25 -149l-88 -364q-19 -81 -19 -103q0 -51 54 -51q56 0 123 72t138 209q121 235 176 491z" />
    <glyph glyph-name="x" unicode="x" horiz-adv-x="885" 
d="M828 276l30 -18q-133 -278 -287 -278q-94 0 -136 103q-22 53 -55 225l-27 -34q-155 -200 -203 -243q-56 -51 -106 -51q-38 0 -58 23q-19 22 -19 52q0 34 23 59q24 25 56 25q38 0 65 -46q9 -14 18 -14q18 0 81 78q71 87 158 202q-7 36 -37 185q-31 150 -40 171
q-10 23 -29 23q-30 0 -75 -57q-39 -51 -85 -160l-35 14q132 292 274 292q88 0 122 -93q3 -8 45 -201q85 119 183 230q56 63 112 63q33 0 53 -20q21 -21 21 -53t-20 -54q-24 -26 -61 -26q-28 0 -61 33q-12 13 -23 13q-8 0 -17 -8q-21 -21 -87 -106t-90 -122q24 -144 69 -351
q17 -80 52 -80q39 0 90 61t99 163z" />
    <glyph glyph-name="y" unicode="y" horiz-adv-x="872" 
d="M32 531l-31 15q57 132 115 203q62 77 143 77q57 0 90 -41q31 -38 70 -186q12 -47 51 -184q33 -119 62 -225q17 43 80 209q104 272 139 344q40 83 109 83q34 0 57 -19q29 -23 29 -63q0 -38 -25 -60q-22 -19 -51 -19q-32 0 -57 27q-9 10 -17 10q-16 0 -25 -19
q-7 -13 -34 -88q-98 -272 -197 -493t-171 -332q-111 -171 -248 -259q-88 -57 -167 -57q-53 0 -85 27q-33 28 -33 65q0 31 24 53q26 24 65 24q34 0 54 -21q17 -18 17 -40q0 -6 -2 -16q-3 -14 -3 -18q0 -18 25 -18q37 0 113 58q135 102 226 271q49 91 49 150q0 42 -20 117
q-5 18 -74 264l-53 185q-42 149 -52 164q-12 16 -30 16q-28 0 -65 -54q-27 -42 -78 -150z" />
    <glyph glyph-name="z" unicode="z" horiz-adv-x="785" 
d="M176 630l-58 -132l-36 16l132 299q168 -62 353 -62q57 0 139 6q-1 10 -1 16q0 32 23 53q9 8 20 8q25 0 25 -30q0 -33 -69 -104l-507 -523q31 5 59 5q97 0 244 -57q75 -29 108 -29q48 0 75 36q16 21 16 49q0 24 -9 29q-5 3 -26 3q-25 0 -44 15q-20 16 -20 43t18 44
q17 17 43 17q32 0 53 -28q24 -32 24 -80q0 -70 -46 -135q-73 -102 -192 -102q-98 0 -253 50q-109 35 -130 35q-37 0 -37 -41q0 -3 2 -17v-4q0 -37 -33 -37q-15 0 -24 11q-7 9 -7 19q0 28 40 77q34 41 155 163l417 437q-195 -59 -349 -59q-50 0 -105 9z" />
    <glyph glyph-name="braceleft" unicode="{" horiz-adv-x="680" 
d="M100 503l7 35q68 3 103 44q41 50 63 164l62 289q35 158 65 202q35 60 82.5 87t128.5 34q12 1 183 7l-8 -41q-135 -9 -191 -87q-32 -51 -54 -156l-64 -304q-29 -141 -82 -191q-50 -49 -132 -62l-2 -7q40 -7 63 -23q58 -38 58 -113q0 -49 -16 -123l-69 -327
q-20 -93 -20 -142q0 -118 155 -131l-8 -41q-162 2 -233 18q-59 14 -86 56q-23 36 -23 77q0 77 28 207l62 293q23 112 23 150q0 47 -42 71q-21 12 -53 14z" />
    <glyph glyph-name="bar" unicode="|" 
d="M501 1365h134v-1706h-134v1706z" />
    <glyph glyph-name="braceright" unicode="}" horiz-adv-x="680" 
d="M623 538l-8 -35q-62 -3 -100 -39q-35 -36 -53 -109q-12 -57 -19 -87l-62 -293q-29 -148 -64 -218q-47 -85 -114 -109q-75 -31 -287 -31l9 41q146 7 202 110q24 46 48 163l70 327q16 76 34 118.5t46 72.5q54 57 135 68l1 7q-40 8 -65 25q-57 40 -57 113q0 39 16 115
l65 304q16 75 16 108q0 91 -85 121q-25 8 -72 14l9 41q149 -4 216 -17q65 -13 92 -46q31 -40 31 -113q0 -58 -20 -154l-62 -289q-16 -75 -16 -115q0 -87 94 -93z" />
    <glyph glyph-name="asciitilde" unicode="~" horiz-adv-x="1365" 
d="M1129 1502l33 -21q-41 -76 -109 -134q-82 -70 -168 -70q-38 0 -97 18l-84 28q-119 39 -177 39q-71 0 -119 -48q-15 -15 -59 -64l-33 21q120 206 280 206q54 0 180 -43q110 -38 162 -38q106 0 191 106z" />
    <glyph glyph-name="nbspace" unicode="&#xa0;" horiz-adv-x="512" 
 />
    <glyph glyph-name="exclamdown" unicode="&#xa1;" horiz-adv-x="575" 
d="M280 390h48q-64 -418 -94 -779q-9 -104 -46 -144q-32 -33 -84 -33q-45 0 -75 25q-34 29 -34 69q0 31 24 104q5 15 82 223q99 276 163 485zM365 840q51 0 87 -36t36 -87t-36 -87t-88 -36t-86 36q-36 37 -36 87q0 49 36 87q35 36 87 36z" />
    <glyph glyph-name="cent" unicode="&#xa2;" 
d="M711 1053l-163 -763q151 -1 305 213l30 -23q-154 -224 -343 -227l-36 -169h-61l36 169q-96 20 -157 76q-115 105 -115 274q0 132 69 247q87 143 247 209q58 24 136 34l31 147h61l-32 -147q74 -8 123 -41q29 -20 47 -53.5t18 -66.5q0 -38 -27 -67q-30 -32 -69 -32
q-34 0 -60 23q-21 19 -21 47q0 45 53 71q16 8 16 20q0 15 -20 33q-24 23 -68 26zM650 1053q-73 -25 -136 -111q-57 -79 -93 -233q-27 -113 -27 -209q0 -157 96 -198z" />
    <glyph glyph-name="sterling" unicode="&#xa3;" horiz-adv-x="1092" 
d="M187 624l13 57h201q-27 142 -27 219q0 154 95 278q129 167 353 167q189 0 280 -110q63 -75 63 -165q0 -59 -26 -101q-35 -57 -99 -57q-46 0 -77 35q-24 27 -24 67q0 46 29 69q9 7 27 16t23 9l62 -3q5 0 9.5 8.5t4.5 19.5q0 63 -66 111q-77 57 -182 57q-143 0 -199 -102
q-42 -78 -42 -226q0 -37 3 -108t3 -109q0 -34 -3 -75h296l-12 -57h-291q-37 -199 -153 -372q36 -13 159 -63q56 -23 116 -23q149 0 275 190l34 -17q-47 -100 -106 -176q-141 -183 -266 -183q-74 0 -202 83q-41 26 -88 67q-118 -132 -253 -132q-82 0 -128 55q-30 37 -30 85
q0 68 54 120q65 62 158 62q110 0 229 -51q37 81 37 151q0 71 -27 204h-223zM331 157q-143 104 -205 104q-49 0 -86 -37q-33 -33 -33 -79q0 -43 31 -73q34 -32 80 -32q71 0 142 50q17 12 71 67z" />
    <glyph glyph-name="currency" unicode="&#xa4;" 
d="M832 984l136 136l49 -48l-136 -136q97 -120 97 -266q0 -150 -97 -268l136 -136l-49 -48l-135 135q-117 -97 -268 -97q-147 0 -267 97l-136 -135l-48 48l136 136q-98 122 -98 267q0 149 98 267l-136 136l48 48l136 -136q121 98 267 98q150 0 267 -98zM561 947
q-119 0 -202 -92q-72 -79 -72 -186q0 -124 92 -207q79 -71 186 -71q124 0 207 92q71 79 71 188q0 120 -92 205q-78 71 -190 71z" />
    <glyph glyph-name="yen" unicode="&#xa5;" 
d="M468 623h-255l8 41h239l-59 224h-215l8 41h196l-94 356h-91l9 41h463l-8 -41h-152l144 -582l366 582h-173l9 41h350l-9 -41h-125l-227 -356h238l-8 -41h-256l-143 -224h267l-8 -41h-283l-124 -582h168l-9 -41h-526l9 41h167z" />
    <glyph glyph-name="brokenbar" unicode="&#xa6;" 
d="M501 1365h134v-695h-134v695zM501 314h134v-655h-134v655z" />
    <glyph glyph-name="section" unicode="&#xa7;" 
d="M698 132q49 -82 49 -177q0 -147 -94 -246q-106 -112 -279 -112q-155 0 -253 90q-83 77 -83 184q0 79 49 118q32 25 74 25q39 0 65 -30q21 -25 21 -63q0 -46 -55 -92q-40 -33 -40 -59q0 -36 28 -65q66 -67 186 -67q154 0 222 99q35 50 35 112q0 58 -36 108q-27 37 -116 95
q-193 127 -259 179q-73 58 -101 115q-28 55 -28 128q0 245 283 351q-71 99 -71 206q0 161 115 261q107 93 262 93q150 0 240 -83q87 -79 87 -190q0 -56 -30 -93q-33 -41 -85 -41q-42 0 -68 26q-24 23 -24 59q0 43 47 93q36 38 36 71q0 25 -15 47q-21 32 -71 53
q-46 20 -101 20q-112 0 -187 -72q-59 -57 -59 -143q0 -85 54 -145q47 -53 179 -143q146 -99 200 -152q95 -94 95 -214q0 -67 -29 -134.5t-78 -116.5q-57 -58 -165 -95zM397 790q-64 -17 -104 -45q-81 -59 -81 -139q0 -86 121 -184q44 -36 218 -155q66 -47 118 -99
q73 18 115 54q67 56 67 135q0 82 -94 159q-33 28 -224 159q-81 57 -136 115z" />
    <glyph glyph-name="dieresis" unicode="&#xa8;" 
d="M488 1209q41 0 70 -30q30 -31 30 -72q0 -42 -30 -73q-29 -30 -72 -30t-73 30t-30 72q0 44 30 73q31 30 75 30zM850 1209q41 0 70 -30q30 -31 30 -72q0 -42 -30 -73q-29 -30 -71 -30q-44 0 -74 30t-30 72q0 44 30 73q31 30 75 30z" />
    <glyph glyph-name="copyright" unicode="&#xa9;" horiz-adv-x="1591" 
d="M863 1385q144 0 279.5 -61t236.5 -172q183 -199 183 -470q0 -149 -61.5 -286t-173.5 -237q-203 -180 -475 -180q-151 0 -289 61t-239 171q-182 201 -182 477q0 304 236 516q200 181 485 181zM842 1317q-128 0 -247.5 -55t-208.5 -156q-162 -180 -162 -424
q0 -135 54.5 -258t153.5 -214q179 -163 420 -163q133 0 255.5 55t211.5 155q161 181 161 430q0 274 -208 466q-177 164 -430 164zM1131 524v-230h-28l-40 53q-102 -64 -201 -64q-120 0 -219 84q-139 119 -139 313q0 100 41 186t116 142q98 75 211 75q99 0 191 -63l40 52h28
v-216h-31q-20 80 -70 129q-59 58 -153 58q-118 0 -167 -84q-37 -65 -37 -309q0 -131 10 -187q27 -140 185 -140q160 0 233 201h30z" />
    <glyph glyph-name="ordfeminine" unicode="&#xaa;" horiz-adv-x="683" 
d="M614 1375h136l-75 -351q-23 -108 -23 -133q0 -27 17 -27q21 0 52 60l27 -25q-60 -93 -120 -93q-47 0 -77 45q-14 21 -18 49q-66 -94 -161 -94q-71 0 -127 51q-71 64 -71 178q0 141 104 253q92 101 199 101q77 0 125 -72zM494 1345q-57 0 -99 -69q-42 -71 -68 -185
q-18 -79 -18 -135q0 -59 33 -89q20 -19 50 -19q82 0 123 108q26 67 47 164q17 75 17 114q0 55 -30 87q-22 24 -55 24z" />
    <glyph glyph-name="guillemotleft" unicode="&#xab;" horiz-adv-x="737" 
d="M102 415l218 190h113l-227 -190l187 -200h-104zM315 415l218 190h113l-227 -190l187 -200h-104z" />
    <glyph glyph-name="logicalnot" unicode="&#xac;" 
d="M782 0v448h-656v98h884v-546h-228z" />
    <glyph glyph-name="sfthyphen" unicode="&#xad;" horiz-adv-x="396" 
d="M13 478h396l-29 -136h-396z" />
    <glyph glyph-name="registered" unicode="&#xae;" horiz-adv-x="1591" 
d="M863 1385q144 0 279.5 -61t236.5 -172q183 -199 183 -470q0 -149 -61.5 -286t-173.5 -237q-203 -180 -475 -180q-151 0 -289 61t-239 171q-182 201 -182 477q0 304 236 516q200 181 485 181zM842 1317q-128 0 -247.5 -55t-208.5 -156q-162 -180 -162 -424
q0 -135 54.5 -258t153.5 -214q179 -163 420 -163q133 0 255.5 55t211.5 155q161 181 161 430q0 274 -208 466q-177 164 -430 164zM600 331v704h-102v37h291q129 0 174 -8q99 -19 146 -75q35 -42 35 -99q0 -72 -52.5 -119.5t-155.5 -66.5q105 -36 146 -96q37 -56 37 -138v-26
q-1 -25 -1 -34q0 -80 49 -80q14 0 52 14l14 -33q-52 -22 -97 -22q-47 0 -87.5 22.5t-62.5 59.5q-24 43 -28 153q-2 93 -30 125q-36 41 -147 41h-36v-359h102v-37h-349v37h102zM745 729h37q114 0 156 28q52 34 52 125q0 88 -52 125q-30 21 -69 25q-33 3 -82 3h-42v-306z" />
    <glyph glyph-name="overscore" unicode="&#xaf;" 
d="M95 1728h946v-104h-946v104z" />
    <glyph glyph-name="degree" unicode="&#xb0;" horiz-adv-x="760" 
d="M530 1365q107 0 188 -80q78 -78 78 -185q0 -113 -78 -192q-79 -79 -192 -79q-121 0 -203 88q-71 75 -71 182q0 124 92 199q81 67 186 67zM520 1298q-73 0 -128 -51q-66 -62 -66 -147q0 -75 49 -133q59 -68 150 -68q79 0 137 57q60 59 60 141q0 84 -58 142q-59 59 -144 59
z" />
    <glyph glyph-name="plusminus" unicode="&#xb1;" 
d="M486 626h-380v72h380v360h72v-360h381v-72h-381v-360h-72v360zM106 179h833v-72h-833v72z" />
    <glyph glyph-name="twosuperior" unicode="&#xb2;" horiz-adv-x="679" 
d="M685 740l-45 -210h-530v74q45 38 157 131q154 128 224 227q72 101 72 196q0 65 -34 99q-33 33 -88 33q-67 0 -116 -38q-34 -27 -34 -62q0 -20 30 -25q59 -10 59 -60q0 -27 -21 -46q-18 -17 -46 -17q-35 0 -57 24q-28 30 -28 77q0 72 63 129q72 65 187 65q108 0 174 -54
q56 -46 56 -124q0 -79 -63 -154q-61 -72 -227 -209q-57 -48 -178 -145l-13 -11h284q59 0 77 7q38 15 54 93h43z" />
    <glyph glyph-name="threesuperior" unicode="&#xb3;" horiz-adv-x="679" 
d="M469 963q94 -19 142 -66t48 -121q0 -101 -96 -176q-103 -82 -247 -82q-99 0 -151 54q-36 37 -36 87q0 41 28 66q21 19 48 19q28 0 46 -17t18 -41t-16 -42q-18 -19 -42 -25q-12 -4 -12 -10q0 -10 8 -18q31 -36 106 -36q83 0 136 55q65 69 65 184q0 144 -129 144
q-15 0 -47 -6t-35 -6q-24 0 -24 24q0 27 37 27q6 0 28 -2q8 -1 20 -1q82 0 136 67q49 61 49 147q0 55 -31 86q-25 25 -68 25q-50 0 -83 -21q-19 -12 -19 -24q0 -5 16 -23q14 -15 14 -35q0 -25 -16 -41q-19 -19 -47 -19t-45 17t-17 44q0 51 53 90q69 50 173 50q103 0 162 -56
q43 -41 43 -104q0 -146 -215 -214z" />
    <glyph glyph-name="acute" unicode="&#xb4;" 
d="M806 1256h151q26 0 26 -17q0 -10 -13 -19l-386 -271l-19 23z" />
    <glyph glyph-name="mu" unicode="&#xb5;" horiz-adv-x="1005" 
d="M242 765h-163l10 41h337l-104 -433q-54 -225 -54 -260q0 -33 22 -53q18 -17 44 -17q59 0 127 61q95 86 153 245q23 62 60 224l56 233h178l-134 -558q-30 -124 -30 -161q0 -39 30 -39q83 0 204 234l30 -15q-70 -138 -129 -199q-83 -88 -172 -88q-51 0 -85 29
q-46 38 -46 113q0 29 10 82q-140 -224 -315 -224q-109 0 -144 75l-6 -53q-25 -229 -40 -399q-7 -88 -38 -121q-27 -28 -71 -28q-37 0 -63 21q-28 24 -28 58q0 25 20 87q4 14 69 187l57 164q71 195 91 281z" />
    <glyph glyph-name="paragraph" unicode="&#xb6;" 
d="M308 -341l206 972q-28 -1 -42 -1q-122 0 -197 55q-104 76 -104 226q0 118 68 231q134 223 424 223h490l-9 -41h-136l-354 -1665h136l-8 -41h-640l9 41h157zM407 -341h148l354 1665h-148z" />
    <glyph glyph-name="middot" unicode="&#xb7;" horiz-adv-x="520" 
d="M262 533q50 0 84 -36q36 -37 36 -87t-36 -87q-35 -36 -86 -36q-52 0 -88 36t-36 87q0 52 36 87q37 36 90 36z" />
    <glyph glyph-name="cedilla" unicode="&#xb8;" 
d="M478 0h43l-90 -135q19 1 31 1q82 0 125 -43q26 -26 26 -63q0 -47 -42 -81q-56 -47 -166 -47q-100 0 -156 42q-35 27 -35 62q0 40 42 40q37 0 37 -38q0 -6 -4 -21q-2 -8 -2 -13q0 -14 22 -24.5t54 -10.5q53 0 86 32q28 28 28 65q0 72 -104 84z" />
    <glyph glyph-name="onesuperior" unicode="&#xb9;" horiz-adv-x="679" 
d="M450 568h158l-8 -38h-430l8 38h138l139 655q6 27 6 34q0 31 -74 31q-22 0 -80 -1l9 38q33 -1 48 -1q96 0 251 20z" />
    <glyph glyph-name="ordmasculine" unicode="&#xba;" horiz-adv-x="683" 
d="M536 1388q82 0 148 -61q80 -74 80 -187q0 -131 -107 -239q-93 -95 -208 -95q-85 0 -153 59q-86 76 -86 193q0 124 98 225q53 54 125 83q53 22 103 22zM532 1351q-68 0 -107 -71q-37 -65 -57 -174q-16 -81 -16 -142q0 -69 38 -101q24 -20 57 -20q81 0 119 104
q26 70 43 170q12 68 12 106q0 128 -89 128z" />
    <glyph glyph-name="guillemotright" unicode="&#xbb;" horiz-adv-x="737" 
d="M646 405l-219 -190h-112l227 190l-187 200h104zM433 405l-218 -190h-113l227 190l-187 199h104z" />
    <glyph glyph-name="onequarter" unicode="&#xbc;" horiz-adv-x="1645" 
d="M450 568h158l-8 -38h-430l8 38h138l139 655q6 27 6 34q0 31 -74 31q-22 0 -80 -1l9 38q33 -1 48 -1q96 0 251 20zM1320 1326l-770 -1326h-65l769 1326h66zM1274 231h-301v37l461 527h85l-110 -521h106l14 67h44l-44 -208h-44l21 98h-106l-41 -194h111l-8 -37h-349l8 37
h112zM1283 274l81 378l-334 -378h253z" />
    <glyph glyph-name="onehalf" unicode="&#xbd;" horiz-adv-x="1645" 
d="M450 568h158l-8 -38h-430l8 38h138l139 655q6 27 6 34q0 31 -74 31q-22 0 -80 -1l9 38q33 -1 48 -1q96 0 251 20zM1292 1326l-769 -1326h-65l769 1326h65zM1539 210l-45 -210h-530v74q42 36 157 131q153 127 224 227q72 102 72 197q0 65 -34 99q-33 33 -88 33
q-67 0 -115 -38q-35 -27 -35 -62q0 -20 30 -25q59 -10 59 -60q0 -27 -21 -46q-18 -17 -46 -17q-35 0 -57 24q-28 30 -28 76q0 73 64 131q71 64 186 64q108 0 173 -54q57 -47 57 -124q0 -79 -64 -155q-61 -73 -225 -209q-54 -44 -179 -145l-13 -11h284q59 0 77 7q38 14 55 93
h42z" />
    <glyph glyph-name="threequarters" unicode="&#xbe;" horiz-adv-x="1645" 
d="M469 963q94 -19 142 -66t48 -121q0 -101 -96 -176q-103 -82 -247 -82q-99 0 -151 54q-36 37 -36 87q0 41 28 66q21 19 48 19q28 0 46 -17t18 -41t-16 -42q-18 -19 -42 -25q-12 -4 -12 -10q0 -10 8 -18q31 -36 106 -36q83 0 136 55q65 69 65 184q0 144 -129 144
q-15 0 -47 -6t-35 -6q-24 0 -24 24q0 27 37 27q6 0 28 -2q8 -1 20 -1q82 0 136 67q49 61 49 147q0 55 -31 86q-25 25 -68 25q-50 0 -83 -21q-19 -12 -19 -24q0 -5 16 -23q14 -15 14 -35q0 -25 -16 -41q-19 -19 -47 -19t-45 17t-17 44q0 51 53 90q69 50 173 50q103 0 162 -56
q43 -41 43 -104q0 -146 -215 -214zM1312 1326l-769 -1326h-66l770 1326h65zM1273 231h-301v37l461 527h85l-110 -521h106l14 67h44l-44 -208h-44l21 98h-106l-41 -194h111l-8 -37h-349l8 37h112zM1282 274l81 378l-334 -378h253z" />
    <glyph glyph-name="questiondown" unicode="&#xbf;" horiz-adv-x="767" 
d="M448 401h44q-4 -133 -44 -236q-35 -89 -114 -154q-37 -31 -105 -73q-121 -74 -159 -115q-60 -65 -60 -145q0 -84 64 -142q75 -66 180 -66q70 0 130 31q52 28 76 69q9 17 9 29q0 17 -25 20q-83 11 -83 87q0 30 19 53q24 29 62 29q36 0 61 -23q39 -37 39 -99
q0 -105 -94 -173q-81 -59 -194 -59q-151 0 -240 100q-76 85 -76 219q0 176 134 296q71 63 227 138q69 33 94 58q56 60 55 156zM507 841q50 0 87 -36q36 -36 36 -87t-36 -87t-88 -36t-86 36q-36 37 -36 87t36 87q35 36 87 36z" />
    <glyph glyph-name="Agrave" unicode="&#xc0;" horiz-adv-x="1216" 
d="M0 0zM763 436h-400l-286 -395h195l-9 -41h-400l9 41h144l995 1324h35l-104 -1324h173l-9 -41h-564l9 41h178zM767 477l46 549l-410 -549h364zM920 1713l193 -218l-18 -21l-350 193q-25 14 -25 28q0 18 24 18h176z" />
    <glyph glyph-name="Aacute" unicode="&#xc1;" horiz-adv-x="1216" 
d="M0 0zM763 436h-400l-286 -395h195l-9 -41h-400l9 41h144l995 1324h35l-104 -1324h173l-9 -41h-564l9 41h178zM767 477l46 549l-410 -549h364zM1198 1713h206q29 0 29 -18q0 -16 -30 -28l-452 -193l-12 26z" />
    <glyph glyph-name="Acircumflex" unicode="&#xc2;" horiz-adv-x="1216" 
d="M0 0zM763 436h-400l-286 -395h195l-9 -41h-400l9 41h144l995 1324h35l-104 -1324h173l-9 -41h-564l9 41h178zM767 477l46 549l-410 -549h364zM1076 1575l-353 -100l-11 25l400 227l220 -229l-19 -23z" />
    <glyph glyph-name="Atilde" unicode="&#xc3;" horiz-adv-x="1216" 
d="M0 0zM763 436h-400l-286 -395h195l-9 -41h-400l9 41h144l995 1324h35l-104 -1324h173l-9 -41h-564l9 41h178zM767 477l46 549l-410 -549h364zM1350 1676l29 -20q-107 -152 -223 -152q-37 0 -92 22l-73 28q-48 19 -94 19q-48 0 -82 -26q-16 -11 -41 -40l-28 22
q94 150 232 150q44 0 98 -22l74 -30q42 -17 82 -17q44 0 80 29q13 11 38 37z" />
    <glyph glyph-name="Adieresis" unicode="&#xc4;" horiz-adv-x="1216" 
d="M0 0zM763 436h-400l-286 -395h195l-9 -41h-400l9 41h144l995 1324h35l-104 -1324h173l-9 -41h-564l9 41h178zM767 477l46 549l-410 -549h364zM841 1696q46 0 74 -35q24 -29 24 -67q0 -51 -38 -80q-26 -20 -61 -20q-50 0 -82 39q-21 26 -21 64q0 42 28 70q30 29 76 29z
M1263 1696q46 0 74 -35q24 -29 24 -67q0 -51 -38 -80q-26 -20 -60 -20q-51 0 -83 39q-21 26 -21 64q0 42 28 70q30 29 76 29z" />
    <glyph glyph-name="Aring" unicode="&#xc5;" horiz-adv-x="1216" 
d="M0 0zM763 436h-400l-286 -395h195l-9 -41h-400l9 41h144l995 1324h35l-104 -1324h173l-9 -41h-564l9 41h178zM767 477l46 549l-410 -549h364zM1059 1759q68 0 115 -55q37 -42 37 -103q0 -66 -45 -110q-44 -44 -110 -44q-73 0 -119 54q-36 42 -36 102q0 70 52 116
q44 40 106 40zM1054 1701q-43 0 -72 -40q-20 -27 -20 -59q0 -42 33 -73q26 -24 60 -24q43 0 72 35q23 28 23 64q0 39 -30 70q-27 27 -66 27z" />
    <glyph glyph-name="AE" unicode="&#xc6;" horiz-adv-x="1769" 
d="M840 554h-398l-382 -513h200l-9 -41h-381l9 41h125l951 1283h-179l9 41h1045l-72 -344h-41q10 55 10 87q0 118 -70 175q-37 30 -111 37q-41 4 -165 4h-160l-126 -596h87q137 1 195 81q31 46 54 156h41l-114 -542h-41q22 103 22 147q0 67 -51 97q-34 20 -116 20h-85
l-136 -646h155q159 1 240 19q225 52 305 352h41l-87 -412h-1046l10 41h163zM849 595l148 702l-523 -702h375z" />
    <glyph glyph-name="Ccedilla" unicode="&#xc7;" horiz-adv-x="1202" 
d="M623 -27l-74 -110q23 1 36 1q78 0 122 -44q27 -26 27 -65q0 -47 -43 -82q-57 -48 -169 -48q-102 0 -159 43q-36 27 -36 63q0 22 18 33q11 7 24 7q38 0 38 -39q0 -6 -4 -21q-1 -6 -1 -12q0 -15 22 -25.5t55 -10.5q54 0 87 33q29 28 29 66q0 72 -106 85l90 127
q-81 8 -162 44q-154 68 -229 213q-66 127 -66 271q0 242 136 476q143 244 367 354q123 60 236 60q162 0 269 -125l69 98h41l-84 -396h-41q2 39 2 63q0 144 -52 219q-66 93 -183 93q-218 0 -367 -279q-76 -142 -121 -348q-37 -170 -37 -319q0 -180 82 -279q81 -98 219 -98
q157 0 284 138q72 77 143 221h41l-81 -380h-40l-51 90q-162 -111 -331 -117z" />
    <glyph glyph-name="Egrave" unicode="&#xc8;" horiz-adv-x="1193" 
d="M0 0zM156 41l273 1283h-164l9 41h983l-73 -344h-41q10 56 10 88q0 117 -70 174q-37 30 -111 37q-40 4 -164 4h-161l-127 -596h88q136 1 194 81q31 46 54 156h41l-115 -542h-41q23 103 23 148q0 66 -50 96q-35 20 -117 20h-85l-138 -646h156q159 1 239 19q225 52 307 352
h41l-88 -412h-1046l9 41h164zM781 1713l193 -218l-18 -21l-350 193q-25 14 -25 28q0 18 24 18h176z" />
    <glyph glyph-name="Eacute" unicode="&#xc9;" horiz-adv-x="1193" 
d="M0 0zM156 41l273 1283h-164l9 41h983l-73 -344h-41q10 56 10 88q0 117 -70 174q-37 30 -111 37q-40 4 -164 4h-161l-127 -596h88q136 1 194 81q31 46 54 156h41l-115 -542h-41q23 103 23 148q0 66 -50 96q-35 20 -117 20h-85l-138 -646h156q159 1 239 19q225 52 307 352
h41l-88 -412h-1046l9 41h164zM946 1713h206q29 0 29 -18q0 -16 -30 -28l-452 -193l-12 26z" />
    <glyph glyph-name="Ecircumflex" unicode="&#xca;" horiz-adv-x="1193" 
d="M0 0zM156 41l273 1283h-164l9 41h983l-73 -344h-41q10 56 10 88q0 117 -70 174q-37 30 -111 37q-40 4 -164 4h-161l-127 -596h88q136 1 194 81q31 46 54 156h41l-115 -542h-41q23 103 23 148q0 66 -50 96q-35 20 -117 20h-85l-138 -646h156q159 1 239 19q225 52 307 352
h41l-88 -412h-1046l9 41h164zM901 1575l-353 -100l-11 25l400 227l220 -229l-19 -23z" />
    <glyph glyph-name="Edieresis" unicode="&#xcb;" horiz-adv-x="1193" 
d="M156 41l273 1283h-164l9 41h983l-73 -344h-41q10 56 10 88q0 117 -70 174q-37 30 -111 37q-40 4 -164 4h-161l-127 -596h88q136 1 194 81q31 46 54 156h41l-115 -542h-41q23 103 23 148q0 66 -50 96q-35 20 -117 20h-85l-138 -646h156q159 1 239 19q225 52 307 352h41
l-88 -412h-1046l9 41h164zM647 1696q46 0 74 -35q24 -29 24 -67q0 -51 -38 -80q-26 -20 -61 -20q-50 0 -82 39q-21 26 -21 64q0 42 28 70q30 29 76 29zM1069 1696q46 0 74 -35q24 -29 24 -67q0 -51 -38 -80q-27 -20 -61 -20q-50 0 -82 39q-21 26 -21 64q0 42 28 70
q30 29 76 29z" />
    <glyph glyph-name="Igrave" unicode="&#xcc;" horiz-adv-x="690" 
d="M0 0zM156 41l273 1283h-164l9 41h546l-9 -41h-164l-273 -1283h164l-9 -41h-546l9 41h164zM510 1713l193 -218l-18 -21l-350 193q-25 14 -25 28q0 18 24 18h176z" />
    <glyph glyph-name="Iacute" unicode="&#xcd;" horiz-adv-x="690" 
d="M0 0zM156 41l273 1283h-164l9 41h546l-9 -41h-164l-273 -1283h164l-9 -41h-546l9 41h164zM714 1713h206q29 0 29 -18q0 -16 -30 -28l-452 -193l-12 26z" />
    <glyph glyph-name="Icircumflex" unicode="&#xce;" horiz-adv-x="690" 
d="M0 0zM156 41l273 1283h-164l9 41h546l-9 -41h-164l-273 -1283h164l-9 -41h-546l9 41h164zM641 1575l-353 -100l-11 25l400 227l220 -229l-19 -23z" />
    <glyph glyph-name="Idieresis" unicode="&#xcf;" horiz-adv-x="690" 
d="M156 41l273 1283h-164l9 41h546l-9 -41h-164l-273 -1283h164l-9 -41h-546l9 41h164zM426 1696q46 0 74 -35q24 -29 24 -67q0 -51 -38 -80q-26 -20 -60 -20q-51 0 -83 39q-21 26 -21 64q0 42 28 70q30 29 76 29zM769 1696q46 0 74 -35q24 -29 24 -67q0 -51 -38 -80
q-26 -20 -61 -20q-50 0 -82 39q-21 26 -21 64q0 42 28 70q30 29 76 29z" />
    <glyph glyph-name="Eth" unicode="&#xd0;" horiz-adv-x="1352" 
d="M156 41l139 653h-164l9 41h163l126 589h-164l9 41h439q166 0 243 -18q198 -48 294 -205q86 -140 86 -330q0 -245 -131 -467q-146 -246 -392 -316q-78 -22 -185 -26q-67 -3 -165 -3h-480l9 41h164zM374 41h89q183 0 258 24q134 44 220 196q89 159 135 405q35 186 35 334
q0 190 -112 269q-64 45 -142 51q-46 4 -115 4h-95l-125 -589h280l-9 -41h-280z" />
    <glyph glyph-name="Ntilde" unicode="&#xd1;" horiz-adv-x="1345" 
d="M0 0zM149 41l273 1283h-164l9 41h407l398 -966l196 925h-164l9 41h376l-9 -41h-164l-282 -1324h-32l-536 1307l-269 -1266h163l-9 -41h-375l9 41h164zM1218 1676l29 -20q-107 -152 -223 -152q-37 0 -92 22l-73 28q-48 19 -94 19q-48 0 -82 -26q-16 -11 -41 -40l-28 22
q94 150 232 150q44 0 98 -22l74 -30q42 -17 82 -17q44 0 80 29q13 11 38 37z" />
    <glyph glyph-name="Ograve" unicode="&#xd2;" horiz-adv-x="1329" 
d="M128 0zM855 1392q87 0 171 -38.5t145 -107.5q142 -160 142 -418q0 -176 -70.5 -343.5t-201.5 -300.5q-208 -211 -436 -211q-188 0 -315 136q-162 173 -162 432q0 216 121 431q125 224 338 344q133 76 268 76zM850 1344q-53 0 -108 -22t-95 -60q-133 -123 -222 -431
q-72 -247 -72 -465q0 -153 46 -229q69 -116 201 -116q195 0 315 236q86 170 132 400q41 201 41 366q0 192 -90 270q-58 51 -148 51zM842 1713l193 -218l-18 -21l-350 193q-25 14 -25 28q0 18 24 18h176z" />
    <glyph glyph-name="Oacute" unicode="&#xd3;" horiz-adv-x="1329" 
d="M128 0zM855 1392q87 0 171 -38.5t145 -107.5q142 -160 142 -418q0 -176 -70.5 -343.5t-201.5 -300.5q-208 -211 -436 -211q-188 0 -315 136q-162 173 -162 432q0 216 121 431q125 224 338 344q133 76 268 76zM850 1344q-53 0 -108 -22t-95 -60q-133 -123 -222 -431
q-72 -247 -72 -465q0 -153 46 -229q69 -116 201 -116q195 0 315 236q86 170 132 400q41 201 41 366q0 192 -90 270q-58 51 -148 51zM1041 1713h206q29 0 29 -18q0 -16 -30 -28l-452 -193l-12 26z" />
    <glyph glyph-name="Ocircumflex" unicode="&#xd4;" horiz-adv-x="1329" 
d="M128 0zM855 1392q87 0 171 -38.5t145 -107.5q142 -160 142 -418q0 -176 -70.5 -343.5t-201.5 -300.5q-208 -211 -436 -211q-188 0 -315 136q-162 173 -162 432q0 216 121 431q125 224 338 344q133 76 268 76zM850 1344q-53 0 -108 -22t-95 -60q-133 -123 -222 -431
q-72 -247 -72 -465q0 -153 46 -229q69 -116 201 -116q195 0 315 236q86 170 132 400q41 201 41 366q0 192 -90 270q-58 51 -148 51zM960 1575l-353 -100l-11 25l400 227l220 -229l-19 -23z" />
    <glyph glyph-name="Otilde" unicode="&#xd5;" horiz-adv-x="1329" 
d="M128 0zM855 1392q87 0 171 -38.5t145 -107.5q142 -160 142 -418q0 -176 -70.5 -343.5t-201.5 -300.5q-208 -211 -436 -211q-188 0 -315 136q-162 173 -162 432q0 216 121 431q125 224 338 344q133 76 268 76zM850 1344q-53 0 -108 -22t-95 -60q-133 -123 -222 -431
q-72 -247 -72 -465q0 -153 46 -229q69 -116 201 -116q195 0 315 236q86 170 132 400q41 201 41 366q0 192 -90 270q-58 51 -148 51zM1251 1676l29 -20q-107 -152 -223 -152q-37 0 -92 22l-73 28q-48 19 -94 19q-48 0 -82 -26q-16 -11 -41 -40l-28 22q94 150 232 150
q44 0 98 -22l74 -30q42 -17 82 -17q44 0 80 29q13 11 38 37z" />
    <glyph glyph-name="Odieresis" unicode="&#xd6;" horiz-adv-x="1329" 
d="M855 1392q87 0 171 -38.5t145 -107.5q142 -160 142 -418q0 -176 -70.5 -343.5t-201.5 -300.5q-208 -211 -436 -211q-188 0 -315 136q-162 173 -162 432q0 216 121 431q125 224 338 344q133 76 268 76zM850 1344q-53 0 -108 -22t-95 -60q-133 -123 -222 -431
q-72 -247 -72 -465q0 -153 46 -229q69 -116 201 -116q195 0 315 236q86 170 132 400q41 201 41 366q0 192 -90 270q-58 51 -148 51zM710 1696q46 0 74 -35q24 -29 24 -67q0 -51 -38 -80q-26 -20 -61 -20q-50 0 -82 39q-21 26 -21 64q0 42 28 70q30 29 76 29zM1132 1696
q46 0 74 -35q24 -29 24 -67q0 -51 -38 -80q-26 -20 -60 -20q-52 0 -83 39q-21 26 -21 64q0 42 28 70q30 29 76 29z" />
    <glyph glyph-name="multiply" unicode="&#xd7;" 
d="M564 611l-298 -298l-51 51l298 298l-298 298l51 51l298 -298l298 298l51 -51l-298 -298l298 -298l-51 -51z" />
    <glyph glyph-name="Oslash" unicode="&#xd8;" horiz-adv-x="1329" 
d="M1203 1205q111 -164 111 -378q0 -175 -71 -342.5t-201 -300.5q-208 -211 -436 -211q-129 0 -239 71q-51 33 -92 82l-117 -137l-33 32l119 142q-116 176 -116 379q0 215 121 430q129 229 338 345q134 75 267 75q179 0 319 -147l110 126l36 -30zM1086 1085l-719 -860
q23 -95 81 -147q65 -57 153 -57q233 0 372 366q73 196 104 447q12 100 12 171q0 26 -3 80zM358 285l720 859q-20 99 -79 149q-60 51 -146 51q-211 0 -335 -265q-86 -182 -132 -407q-33 -157 -33 -277q0 -36 5 -110z" />
    <glyph glyph-name="Ugrave" unicode="&#xd9;" horiz-adv-x="1291" 
d="M206 0zM1229 1324h-164l9 41h375l-9 -41h-164l-165 -777q-39 -187 -65 -266q-56 -172 -160 -241q-104 -67 -260 -67q-208 0 -325 111q-95 91 -95 244q0 78 34 238l161 758h-164l9 41h546l-8 -41h-164l-173 -810q-34 -162 -34 -245q0 -121 73 -185q72 -63 186 -63
q90 0 163.5 42t118.5 119q50 88 109 365zM824 1713l193 -218l-18 -21l-350 193q-25 14 -25 28q0 18 24 18h176z" />
    <glyph glyph-name="Uacute" unicode="&#xda;" horiz-adv-x="1291" 
d="M206 0zM1229 1324h-164l9 41h375l-9 -41h-164l-165 -777q-39 -187 -65 -266q-56 -172 -160 -241q-104 -67 -260 -67q-208 0 -325 111q-95 91 -95 244q0 78 34 238l161 758h-164l9 41h546l-8 -41h-164l-173 -810q-34 -162 -34 -245q0 -121 73 -185q72 -63 186 -63
q90 0 163.5 42t118.5 119q50 88 109 365zM1028 1713h206q29 0 29 -18q0 -16 -30 -28l-452 -193l-12 26z" />
    <glyph glyph-name="Ucircumflex" unicode="&#xdb;" horiz-adv-x="1291" 
d="M206 0zM1229 1324h-164l9 41h375l-9 -41h-164l-165 -777q-39 -187 -65 -266q-56 -172 -160 -241q-104 -67 -260 -67q-208 0 -325 111q-95 91 -95 244q0 78 34 238l161 758h-164l9 41h546l-8 -41h-164l-173 -810q-34 -162 -34 -245q0 -121 73 -185q72 -63 186 -63
q90 0 163.5 42t118.5 119q50 88 109 365zM954 1575l-353 -100l-11 25l400 227l220 -229l-19 -23z" />
    <glyph glyph-name="Udieresis" unicode="&#xdc;" horiz-adv-x="1291" 
d="M206 0zM1229 1324h-164l9 41h375l-9 -41h-164l-165 -777q-39 -187 -65 -266q-56 -172 -160 -241q-104 -67 -260 -67q-208 0 -325 111q-95 91 -95 244q0 78 34 238l161 758h-164l9 41h546l-8 -41h-164l-173 -810q-34 -162 -34 -245q0 -121 73 -185q72 -63 186 -63
q90 0 163.5 42t118.5 119q50 88 109 365zM691 1696q46 0 74 -35q24 -29 24 -67q0 -51 -38 -80q-26 -20 -61 -20q-50 0 -82 39q-21 26 -21 64q0 42 28 70q30 29 76 29zM1113 1696q46 0 74 -35q24 -29 24 -67q0 -51 -38 -80q-26 -20 -60 -20q-51 0 -83 39q-21 26 -21 64
q0 42 28 70q30 29 76 29z" />
    <glyph glyph-name="Yacute" unicode="&#xdd;" horiz-adv-x="1220" 
d="M193 0zM836 641l-128 -600h164l-9 -41h-546l9 41h164l124 585l-259 698h-162l9 41h569l-8 -41h-177l228 -628l414 628h-187l9 41h399l-9 -41h-155zM1001 1713h206q29 0 29 -18q0 -16 -30 -28l-452 -193l-12 26z" />
    <glyph glyph-name="Thorn" unicode="&#xde;" horiz-adv-x="1189" 
d="M156 41l273 1283h-164l9 41h546l-9 -41h-164l-39 -184h143q175 0 223 -10q122 -27 184 -112q57 -78 57 -183q0 -131 -79 -237q-54 -73 -143 -119.5t-199 -59.5q-98 -12 -229 -12q-52 0 -112 3l-79 -369h164l-9 -41h-546l9 41h164zM462 452q51 -4 109 -4q132 0 188 14
q91 24 136 95q39 62 67 206q20 105 20 182q0 99 -72 135q-38 19 -158 19h-153z" />
    <glyph glyph-name="germandbls" unicode="&#xdf;" horiz-adv-x="938" 
d="M438 439l10 40q40 -1 62 -1q88 0 130 36q30 26 49 68.5t19 84.5q0 52 -31 85q-34 37 -93 37q-86 0 -159 -72q-43 -43 -67 -97q-16 -35 -32 -105l-82 -338q-53 -221 -96 -343q-72 -200 -195 -301q-98 -82 -203 -82q-66 0 -108 36q-37 30 -37 74q0 34 21 56q23 23 54 23
t50 -23q14 -18 14 -39q0 -20 -17 -45q-10 -15 -10 -22q0 -11 12.5 -18.5t29.5 -7.5q63 0 111 55q40 47 73 144q20 61 62 234l164 684q65 272 93 355q75 224 213 337q110 91 254 91q85 0 138 -38q49 -35 49 -89q0 -34 -18 -56q-24 -29 -66 -29q-38 0 -63 22q-22 18 -22 48
q0 25 22 51q17 19 17 30q0 26 -71 26q-103 0 -178 -109q-42 -60 -80 -192q-17 -56 -67 -265l-19 -81q103 123 262 123q96 0 166 -44q74 -46 74 -126q0 -77 -79 -137q-58 -44 -162 -61q99 -15 145 -48q70 -51 70 -149q0 -121 -100 -202q-98 -79 -234 -79q-114 0 -180 59
q-47 42 -47 97q0 40 27 65q24 24 61 24q29 0 48 -16q22 -17 22 -47q0 -35 -38 -61q-28 -20 -28 -34q0 -17 23 -30q34 -19 77 -19q93 0 145 87q56 91 56 198q0 75 -51 110q-39 26 -123 26h-67z" />
    <glyph glyph-name="agrave" unicode="&#xe0;" horiz-adv-x="994" 
d="M67 0zM719 806h178l-124 -511q-38 -159 -38 -202q0 -47 39 -47q80 0 195 231l29 -16q-74 -146 -126 -201q-78 -81 -163 -81q-67 0 -105 63q-20 34 -25 96q-43 -64 -76 -93q-76 -65 -168 -65q-99 0 -176 74q-92 88 -92 242q0 215 159 386q135 144 285 144q134 0 182 -128z
M539 782q-41 0 -83.5 -29.5t-73.5 -79.5q-66 -107 -110 -279q-34 -132 -34 -217q0 -79 46 -125q30 -30 76 -30q129 0 198 168q40 100 77 247q30 121 30 182q0 77 -41 125q-33 38 -85 38zM572 1256l154 -290l-23 -17l-287 270q-11 11 -11 21q0 16 25 16h142z" />
    <glyph glyph-name="aacute" unicode="&#xe1;" horiz-adv-x="994" 
d="M67 0zM719 806h178l-124 -511q-38 -159 -38 -202q0 -47 39 -47q80 0 195 231l29 -16q-74 -146 -126 -201q-78 -81 -163 -81q-67 0 -105 63q-20 34 -25 96q-43 -64 -76 -93q-76 -65 -168 -65q-99 0 -176 74q-92 88 -92 242q0 215 159 386q135 144 285 144q134 0 182 -128z
M539 782q-41 0 -83.5 -29.5t-73.5 -79.5q-66 -107 -110 -279q-34 -132 -34 -217q0 -79 46 -125q30 -30 76 -30q129 0 198 168q40 100 77 247q30 121 30 182q0 77 -41 125q-33 38 -85 38zM765 1256h151q26 0 26 -17q0 -10 -13 -19l-386 -271l-19 23z" />
    <glyph glyph-name="acircumflex" unicode="&#xe2;" horiz-adv-x="994" 
d="M67 0zM719 806h178l-124 -511q-38 -159 -38 -202q0 -47 39 -47q80 0 195 231l29 -16q-74 -146 -126 -201q-78 -81 -163 -81q-67 0 -105 63q-20 34 -25 96q-43 -64 -76 -93q-76 -65 -168 -65q-99 0 -176 74q-92 88 -92 242q0 215 159 386q135 144 285 144q134 0 182 -128z
M539 782q-41 0 -83.5 -29.5t-73.5 -79.5q-66 -107 -110 -279q-34 -132 -34 -217q0 -79 46 -125q30 -30 76 -30q129 0 198 168q40 100 77 247q30 121 30 182q0 77 -41 125q-33 38 -85 38zM701 1096l-328 -147l-17 26l387 295l170 -302l-22 -19z" />
    <glyph glyph-name="atilde" unicode="&#xe3;" horiz-adv-x="994" 
d="M67 0zM719 806h178l-124 -511q-38 -159 -38 -202q0 -47 39 -47q80 0 195 231l29 -16q-74 -146 -126 -201q-78 -81 -163 -81q-67 0 -105 63q-20 34 -25 96q-43 -64 -76 -93q-76 -65 -168 -65q-99 0 -176 74q-92 88 -92 242q0 215 159 386q135 144 285 144q134 0 182 -128z
M539 782q-41 0 -83.5 -29.5t-73.5 -79.5q-66 -107 -110 -279q-34 -132 -34 -217q0 -79 46 -125q30 -30 76 -30q129 0 198 168q40 100 77 247q30 121 30 182q0 77 -41 125q-33 38 -85 38zM951 1185l29 -21q-104 -142 -215 -142q-37 0 -90 20l-70 27q-49 19 -92 19
q-46 0 -79 -25q-14 -11 -39 -38l-27 22q44 67 86 97q61 44 138 44q41 0 94 -21l72 -29q39 -15 79 -15q55 0 114 62z" />
    <glyph glyph-name="adieresis" unicode="&#xe4;" horiz-adv-x="994" 
d="M67 0zM719 806h178l-124 -511q-38 -159 -38 -202q0 -47 39 -47q80 0 195 231l29 -16q-74 -146 -126 -201q-78 -81 -163 -81q-67 0 -105 63q-20 34 -25 96q-43 -64 -76 -93q-76 -65 -168 -65q-99 0 -176 74q-92 88 -92 242q0 215 159 386q135 144 285 144q134 0 182 -128z
M539 782q-41 0 -83.5 -29.5t-73.5 -79.5q-66 -107 -110 -279q-34 -132 -34 -217q0 -79 46 -125q30 -30 76 -30q129 0 198 168q40 100 77 247q30 121 30 182q0 77 -41 125q-33 38 -85 38zM483 1209q41 0 70 -30q30 -31 30 -72q0 -42 -30 -73q-29 -30 -72 -30t-73 30t-30 72
q0 44 30 73q31 30 75 30zM845 1209q41 0 70 -30q30 -31 30 -72q0 -42 -30 -73q-29 -30 -71 -30q-44 0 -74 30t-30 72q0 44 30 73q31 30 75 30z" />
    <glyph glyph-name="aring" unicode="&#xe5;" horiz-adv-x="994" 
d="M67 0zM719 806h178l-124 -511q-38 -159 -38 -202q0 -47 39 -47q80 0 195 231l29 -16q-74 -146 -126 -201q-78 -81 -163 -81q-67 0 -105 63q-20 34 -25 96q-43 -64 -76 -93q-76 -65 -168 -65q-99 0 -176 74q-92 88 -92 242q0 215 159 386q135 144 285 144q134 0 182 -128z
M539 782q-41 0 -83.5 -29.5t-73.5 -79.5q-66 -107 -110 -279q-34 -132 -34 -217q0 -79 46 -125q30 -30 76 -30q129 0 198 168q40 100 77 247q30 121 30 182q0 77 -41 125q-33 38 -85 38zM669 1260q68 0 115 -54q37 -43 37 -103q0 -66 -45 -110q-44 -44 -110 -44
q-73 0 -119 54q-36 42 -36 101q0 71 52 116q44 40 106 40zM664 1202q-43 0 -72 -39q-20 -28 -20 -59q0 -43 33 -73q26 -24 60 -24q43 0 72 35q23 28 23 63q0 39 -30 70q-27 27 -66 27z" />
    <glyph glyph-name="ae" unicode="&#xe6;" horiz-adv-x="1403" 
d="M739 806h178l-37 -151q120 171 283 171q106 0 169 -69q41 -45 41 -109q0 -141 -195 -222q-133 -56 -340 -72q-8 -52 -8 -95q0 -100 37 -162q44 -71 127 -71q154 0 295 198l29 -21q-164 -223 -356 -223q-129 0 -227 102q-47 49 -83 124q-64 -96 -121 -146
q-89 -80 -191 -80q-114 0 -195 96q-78 90 -78 223q0 123 66 245q69 127 174 206q103 77 209 77q142 0 193 -145zM843 385q162 19 265 89q69 47 104 112q28 52 28 97q0 48 -32 78q-28 28 -70 28q-69 0 -130 -55q-110 -98 -165 -349zM539 789q-99 0 -169 -139
q-68 -134 -104 -289q-20 -90 -20 -176q0 -82 33 -125q32 -42 84 -42q113 0 187 145q55 110 93 250q30 109 30 189q0 98 -50 151q-34 36 -84 36z" />
    <glyph glyph-name="ccedilla" unicode="&#xe7;" horiz-adv-x="799" 
d="M412 -20l-77 -115q19 1 30 1q82 0 125 -43q26 -26 26 -63q0 -47 -41 -81q-57 -47 -166 -47q-100 0 -156 42q-35 27 -35 62q0 40 41 40q37 0 37 -38q0 -6 -3 -21q-2 -8 -2 -12q0 -15 22 -25.5t53 -10.5q53 0 86 32q28 28 28 65q0 72 -104 84l92 130q-105 11 -179 74
q-116 100 -116 272q0 103 45.5 201t125.5 168q150 131 326 131q93 0 151 -46t58 -112q0 -42 -26 -70q-30 -33 -72 -33q-28 0 -49 16q-27 21 -27 54q0 43 55 76q15 10 15 19q0 23 -26 40q-29 19 -70 19q-113 0 -203 -134q-51 -77 -86 -213q-30 -120 -30 -224q0 -199 157 -199
q94 0 185 80q53 47 118 134l27 -23q-83 -121 -184 -181q-74 -43 -151 -49z" />
    <glyph glyph-name="egrave" unicode="&#xe8;" horiz-adv-x="829" 
d="M74 0zM714 212l26 -23q-168 -210 -353 -210q-129 0 -219 92q-94 97 -94 253q0 109 48.5 210.5t134.5 171.5q89 73 211 105q64 16 125 16q112 0 184 -66q52 -46 52 -117q0 -89 -74 -149q-108 -86 -319 -116q-77 -11 -164 -11q-10 -89 -10 -150q0 -198 153 -198
q77 0 156 56q64 45 143 136zM278 399q137 9 236 61q108 58 153 145q22 44 22 84q0 42 -29 70q-32 31 -82 31q-133 0 -223 -167q-52 -97 -77 -224zM545 1256l154 -290l-23 -17l-287 270q-11 11 -11 21q0 16 25 16h142z" />
    <glyph glyph-name="eacute" unicode="&#xe9;" horiz-adv-x="829" 
d="M74 0zM714 212l26 -23q-168 -210 -353 -210q-129 0 -219 92q-94 97 -94 253q0 109 48.5 210.5t134.5 171.5q89 73 211 105q64 16 125 16q112 0 184 -66q52 -46 52 -117q0 -89 -74 -149q-108 -86 -319 -116q-77 -11 -164 -11q-10 -89 -10 -150q0 -198 153 -198
q77 0 156 56q64 45 143 136zM278 399q137 9 236 61q108 58 153 145q22 44 22 84q0 42 -29 70q-32 31 -82 31q-133 0 -223 -167q-52 -97 -77 -224zM724 1256h151q26 0 26 -17q0 -10 -13 -19l-386 -271l-19 23z" />
    <glyph glyph-name="ecircumflex" unicode="&#xea;" horiz-adv-x="829" 
d="M74 0zM714 212l26 -23q-168 -210 -353 -210q-129 0 -219 92q-94 97 -94 253q0 109 48.5 210.5t134.5 171.5q89 73 211 105q64 16 125 16q112 0 184 -66q52 -46 52 -117q0 -89 -74 -149q-108 -86 -319 -116q-77 -11 -164 -11q-10 -89 -10 -150q0 -198 153 -198
q77 0 156 56q64 45 143 136zM278 399q137 9 236 61q108 58 153 145q22 44 22 84q0 42 -29 70q-32 31 -82 31q-133 0 -223 -167q-52 -97 -77 -224zM653 1096l-328 -147l-17 26l387 295l170 -302l-22 -19z" />
    <glyph glyph-name="edieresis" unicode="&#xeb;" horiz-adv-x="829" 
d="M74 0zM714 212l26 -23q-168 -210 -353 -210q-129 0 -219 92q-94 97 -94 253q0 109 48.5 210.5t134.5 171.5q89 73 211 105q64 16 125 16q112 0 184 -66q52 -46 52 -117q0 -89 -74 -149q-108 -86 -319 -116q-77 -11 -164 -11q-10 -89 -10 -150q0 -198 153 -198
q77 0 156 56q64 45 143 136zM278 399q137 9 236 61q108 58 153 145q22 44 22 84q0 42 -29 70q-32 31 -82 31q-133 0 -223 -167q-52 -97 -77 -224zM438 1209q41 0 70 -30q30 -31 30 -72q0 -42 -30 -73q-29 -30 -72 -30t-73 30t-30 72q0 44 30 73q31 30 75 30zM800 1209
q41 0 70 -30q30 -31 30 -72q0 -42 -30 -73q-29 -30 -71 -30q-44 0 -74 30t-30 72q0 44 30 73q31 30 75 30z" />
    <glyph glyph-name="igrave" unicode="&#xec;" horiz-adv-x="527" 
d="M81 0zM242 765h-161l10 41h338l-153 -640q-13 -54 -13 -76q0 -49 42 -49q40 0 101 70q42 48 88 156l33 -15q-63 -142 -130 -202q-80 -71 -168 -71q-61 0 -99 35t-38 92q0 34 23 129zM299 1256l154 -290l-23 -17l-287 270q-11 11 -11 21q0 16 25 16h142z" />
    <glyph glyph-name="iacute" unicode="&#xed;" horiz-adv-x="527" 
d="M81 0zM242 765h-161l10 41h338l-153 -640q-13 -54 -13 -76q0 -49 42 -49q40 0 101 70q42 48 88 156l33 -15q-63 -142 -130 -202q-80 -71 -168 -71q-61 0 -99 35t-38 92q0 34 23 129zM489 1256h151q26 0 26 -17q0 -10 -13 -19l-386 -271l-19 23z" />
    <glyph glyph-name="icircumflex" unicode="&#xee;" horiz-adv-x="527" 
d="M242 765h-161l10 41h338l-153 -640q-13 -54 -13 -76q0 -49 42 -49q40 0 101 70q42 48 88 156l33 -15q-63 -142 -130 -202q-80 -71 -168 -71q-61 0 -99 35t-38 92q0 34 23 129zM423 1096l-293 -147l-18 26l353 295l136 -302l-23 -19z" />
    <glyph glyph-name="idieresis" unicode="&#xef;" horiz-adv-x="527" 
d="M81 0zM242 765h-161l10 41h338l-153 -640q-13 -54 -13 -76q0 -49 42 -49q40 0 101 70q42 48 88 156l33 -15q-63 -142 -130 -202q-80 -71 -168 -71q-61 0 -99 35t-38 92q0 34 23 129zM235 1209q41 0 70 -30q30 -31 30 -72q0 -42 -30 -73q-29 -30 -72 -30t-73 30t-30 72
q0 44 30 73q31 30 75 30zM537 1209q41 0 70 -30q30 -31 30 -72q0 -42 -30 -73q-29 -30 -71 -30q-44 0 -74 30t-30 72q0 44 30 73q31 30 75 30z" />
    <glyph glyph-name="eth" unicode="&#xf0;" horiz-adv-x="918" 
d="M418 1084l166 103q-60 98 -127 180l33 25q65 -64 149 -173l165 100l21 -34l-163 -98q93 -140 133 -249q68 -184 68 -400q0 -163 -49 -265q-64 -132 -180 -216q-108 -77 -226 -77q-159 0 -258 134q-75 103 -75 224q0 93 40 185t112 164q139 139 316 139q61 0 137 -40
q2 204 -77 364l-166 -101zM538 792q-106 0 -168 -112q-55 -100 -86 -263q-24 -124 -24 -217q0 -106 57 -154q37 -32 88 -32q127 0 186 163q38 106 65 257q18 101 18 170q0 188 -136 188z" />
    <glyph glyph-name="ntilde" unicode="&#xf1;" horiz-adv-x="1023" 
d="M79 0zM263 765h-164l10 41h341l-51 -213q150 233 336 233q76 0 122 -43q40 -38 40 -89q0 -35 -16 -101l-92 -385q-23 -95 -23 -119q0 -43 39 -43q76 0 198 232l30 -17q-141 -281 -302 -281q-58 0 -94 31q-41 35 -41 96q0 38 21 127l91 378q14 57 14 72q0 76 -72 76
q-82 0 -169 -110q-97 -122 -150 -341l-75 -309h-177zM945 1185l29 -21q-104 -142 -215 -142q-37 0 -90 20l-70 27q-49 19 -92 19q-46 0 -79 -25q-14 -11 -39 -38l-27 22q44 67 86 97q61 44 138 44q41 0 94 -21l72 -29q39 -15 79 -15q55 0 114 62z" />
    <glyph glyph-name="ograve" unicode="&#xf2;" horiz-adv-x="918" 
d="M75 0zM551 826q116 0 207 -89q104 -101 104 -258q0 -198 -163 -362q-136 -137 -298 -137q-120 0 -213 86q-113 105 -113 268q0 188 150 340q77 78 180 121q75 31 146 31zM549 792q-105 0 -171 -112q-56 -98 -93 -263q-30 -138 -30 -233q0 -92 53 -138q36 -32 87 -32
q127 0 190 163q41 106 72 257q23 109 23 184q0 174 -131 174zM545 1256l154 -290l-23 -17l-287 270q-11 11 -11 21q0 16 25 16h142z" />
    <glyph glyph-name="oacute" unicode="&#xf3;" horiz-adv-x="918" 
d="M75 0zM551 826q116 0 207 -89q104 -101 104 -258q0 -198 -163 -362q-136 -137 -298 -137q-120 0 -213 86q-113 105 -113 268q0 188 150 340q77 78 180 121q75 31 146 31zM549 792q-105 0 -171 -112q-56 -98 -93 -263q-30 -138 -30 -233q0 -92 53 -138q36 -32 87 -32
q127 0 190 163q41 106 72 257q23 109 23 184q0 174 -131 174zM731 1256h151q26 0 26 -17q0 -10 -13 -19l-386 -271l-19 23z" />
    <glyph glyph-name="ocircumflex" unicode="&#xf4;" horiz-adv-x="918" 
d="M75 0zM551 826q116 0 207 -89q104 -101 104 -258q0 -198 -163 -362q-136 -137 -298 -137q-120 0 -213 86q-113 105 -113 268q0 188 150 340q77 78 180 121q75 31 146 31zM549 792q-105 0 -171 -112q-56 -98 -93 -263q-30 -138 -30 -233q0 -92 53 -138q36 -32 87 -32
q127 0 190 163q41 106 72 257q23 109 23 184q0 174 -131 174zM660 1096l-328 -147l-17 26l387 295l170 -302l-22 -19z" />
    <glyph glyph-name="otilde" unicode="&#xf5;" horiz-adv-x="918" 
d="M75 0zM551 826q116 0 207 -89q104 -101 104 -258q0 -198 -163 -362q-136 -137 -298 -137q-120 0 -213 86q-113 105 -113 268q0 188 150 340q77 78 180 121q75 31 146 31zM549 792q-105 0 -171 -112q-56 -98 -93 -263q-30 -138 -30 -233q0 -92 53 -138q36 -32 87 -32
q127 0 190 163q41 106 72 257q23 109 23 184q0 174 -131 174zM911 1185l29 -21q-104 -142 -215 -142q-37 0 -90 20l-70 27q-49 19 -92 19q-46 0 -79 -25q-14 -11 -39 -38l-27 22q44 67 86 97q61 44 138 44q41 0 94 -21l72 -29q39 -15 79 -15q55 0 114 62z" />
    <glyph glyph-name="odieresis" unicode="&#xf6;" horiz-adv-x="918" 
d="M75 0zM551 826q116 0 207 -89q104 -101 104 -258q0 -198 -163 -362q-136 -137 -298 -137q-120 0 -213 86q-113 105 -113 268q0 188 150 340q77 78 180 121q75 31 146 31zM549 792q-105 0 -171 -112q-56 -98 -93 -263q-30 -138 -30 -233q0 -92 53 -138q36 -32 87 -32
q127 0 190 163q41 106 72 257q23 109 23 184q0 174 -131 174zM441 1209q41 0 70 -30q30 -31 30 -72q0 -42 -30 -73q-29 -30 -72 -30t-73 30t-30 72q0 44 30 73q31 30 75 30zM803 1209q41 0 70 -30q30 -31 30 -72q0 -42 -30 -73q-29 -30 -71 -30q-44 0 -74 30t-30 72
q0 44 30 73q31 30 75 30z" />
    <glyph glyph-name="divide" unicode="&#xf7;" 
d="M567 1020q36 0 61 -28q22 -24 22 -57q0 -38 -28 -63q-24 -22 -57 -22q-38 0 -63 28q-22 25 -22 58q0 36 29 62q23 22 58 22zM566 473q37 0 62 -28q22 -24 22 -57q0 -38 -28 -63q-25 -22 -57 -22q-37 0 -63 29q-22 24 -22 57q0 36 28 63q23 21 58 21zM148 698h833v-72
h-833v72z" />
    <glyph glyph-name="oslash" unicode="&#xf8;" horiz-adv-x="918" 
d="M755 739q107 -106 107 -260q0 -197 -163 -362q-136 -137 -298 -137q-110 0 -210 83l-82 -101l-30 24l85 104q-89 101 -89 244q0 187 150 340q79 80 180 121q76 31 143 31q98 0 177 -61l79 95l29 -26zM678 659l-418 -522q26 -123 135 -123q127 0 190 164q41 105 72 256
q23 112 23 172q0 17 -2 53zM255 194l412 514q-29 84 -116 84q-144 0 -224 -225q-65 -186 -72 -373z" />
    <glyph glyph-name="ugrave" unicode="&#xf9;" horiz-adv-x="1005" 
d="M78 0zM241 765h-163l10 41h337l-104 -433q-54 -230 -54 -260q0 -33 21 -53q19 -17 45 -17q59 0 127 61q95 85 154 245q23 63 60 224l56 233h177l-134 -558q-30 -126 -30 -161q0 -39 30 -39q83 0 204 234l30 -15q-70 -138 -128 -199q-84 -88 -173 -88q-51 0 -85 29
q-46 38 -46 113q0 29 10 82q-140 -224 -316 -224q-75 0 -121 40q-50 43 -50 109q0 45 13 98l36 147zM551 1256l154 -290l-23 -17l-287 270q-11 11 -11 21q0 16 25 16h142z" />
    <glyph glyph-name="uacute" unicode="&#xfa;" horiz-adv-x="1005" 
d="M78 0zM241 765h-163l10 41h337l-104 -433q-54 -230 -54 -260q0 -33 21 -53q19 -17 45 -17q59 0 127 61q95 85 154 245q23 63 60 224l56 233h177l-134 -558q-30 -126 -30 -161q0 -39 30 -39q83 0 204 234l30 -15q-70 -138 -128 -199q-84 -88 -173 -88q-51 0 -85 29
q-46 38 -46 113q0 29 10 82q-140 -224 -316 -224q-75 0 -121 40q-50 43 -50 109q0 45 13 98l36 147zM723 1256h151q26 0 26 -17q0 -10 -13 -19l-386 -271l-19 23z" />
    <glyph glyph-name="ucircumflex" unicode="&#xfb;" horiz-adv-x="1005" 
d="M78 0zM241 765h-163l10 41h337l-104 -433q-54 -230 -54 -260q0 -33 21 -53q19 -17 45 -17q59 0 127 61q95 85 154 245q23 63 60 224l56 233h177l-134 -558q-30 -126 -30 -161q0 -39 30 -39q83 0 204 234l30 -15q-70 -138 -128 -199q-84 -88 -173 -88q-51 0 -85 29
q-46 38 -46 113q0 29 10 82q-140 -224 -316 -224q-75 0 -121 40q-50 43 -50 109q0 45 13 98l36 147zM664 1096l-328 -147l-17 26l387 295l170 -302l-22 -19z" />
    <glyph glyph-name="udieresis" unicode="&#xfc;" horiz-adv-x="1005" 
d="M78 0zM241 765h-163l10 41h337l-104 -433q-54 -230 -54 -260q0 -33 21 -53q19 -17 45 -17q59 0 127 61q95 85 154 245q23 63 60 224l56 233h177l-134 -558q-30 -126 -30 -161q0 -39 30 -39q83 0 204 234l30 -15q-70 -138 -128 -199q-84 -88 -173 -88q-51 0 -85 29
q-46 38 -46 113q0 29 10 82q-140 -224 -316 -224q-75 0 -121 40q-50 43 -50 109q0 45 13 98l36 147zM450 1209q41 0 70 -30q30 -31 30 -72q0 -42 -30 -73q-29 -30 -72 -30t-73 30t-30 72q0 44 30 73q31 30 75 30zM812 1209q41 0 70 -30q30 -31 30 -72q0 -42 -30 -73
q-29 -30 -71 -30q-44 0 -74 30t-30 72q0 44 30 73q31 30 75 30z" />
    <glyph glyph-name="yacute" unicode="&#xfd;" horiz-adv-x="872" 
d="M0 0zM32 531l-31 15q57 132 115 203q62 77 143 77q57 0 90 -41q31 -38 70 -186q12 -47 51 -184q33 -119 62 -225q17 43 80 209q104 272 139 344q40 83 109 83q34 0 57 -19q29 -23 29 -63q0 -38 -25 -60q-22 -19 -51 -19q-32 0 -57 27q-9 10 -17 10q-16 0 -25 -19
q-7 -13 -34 -88q-98 -272 -197 -493t-171 -332q-111 -171 -248 -259q-88 -57 -167 -57q-53 0 -85 27q-33 28 -33 65q0 31 24 53q26 24 65 24q34 0 54 -21q17 -18 17 -40q0 -6 -2 -16q-3 -14 -3 -18q0 -18 25 -18q37 0 113 58q135 102 226 271q49 91 49 150q0 42 -20 117
q-5 18 -74 264l-53 185q-42 149 -52 164q-12 16 -30 16q-28 0 -65 -54q-27 -42 -78 -150zM696 1256h151q26 0 26 -17q0 -10 -13 -19l-386 -271l-19 23z" />
    <glyph glyph-name="thorn" unicode="&#xfe;" horiz-adv-x="1010" 
d="M397 1324h-177l9 41h355l-150 -705q102 166 238 166q113 0 195 -100q81 -99 81 -241q0 -122 -64 -243q-73 -139 -188 -206q-96 -56 -196 -56q-123 0 -184 127l-131 -612h178l-9 -41h-474l9 41h119zM645 781q-49 0 -95 -37q-73 -59 -122 -177q-46 -113 -72 -239
q-15 -71 -15 -125q0 -89 44 -138q41 -47 103 -47q73 0 127 64q80 93 124 301q33 152 33 243q0 155 -127 155z" />
    <glyph glyph-name="ydieresis" unicode="&#xff;" horiz-adv-x="872" 
d="M32 531l-31 15q57 132 115 203q62 77 143 77q57 0 90 -41q31 -38 70 -186q12 -47 51 -184q33 -119 62 -225q17 43 80 209q104 272 139 344q40 83 109 83q34 0 57 -19q29 -23 29 -63q0 -38 -25 -60q-22 -19 -51 -19q-32 0 -57 27q-9 10 -17 10q-16 0 -25 -19
q-7 -13 -34 -88q-98 -272 -197 -493t-171 -332q-111 -171 -248 -259q-88 -57 -167 -57q-53 0 -85 27q-33 28 -33 65q0 31 24 53q26 24 65 24q34 0 54 -21q17 -18 17 -40q0 -6 -2 -16q-3 -14 -3 -18q0 -18 25 -18q37 0 113 58q135 102 226 271q49 91 49 150q0 42 -20 117
q-5 18 -74 264l-53 185q-42 149 -52 164q-12 16 -30 16q-28 0 -65 -54q-27 -42 -78 -150zM407 1209q41 0 70 -30q30 -31 30 -72q0 -42 -30 -73q-29 -30 -72 -30t-73 30t-30 72q0 44 30 73q31 30 75 30zM769 1209q41 0 70 -30q30 -31 30 -72q0 -42 -30 -73q-29 -30 -71 -30
q-44 0 -74 30t-30 72q0 44 30 73q31 30 75 30z" />
    <glyph glyph-name="Cacute" unicode="&#x106;" horiz-adv-x="1202" 
d="M122 0zM1035 1713h206q29 0 29 -18q0 -16 -30 -28l-452 -193l-12 26zM1240 1365l-84 -396h-41q2 39 2 63q0 144 -52 219q-66 93 -183 93q-218 0 -367 -279q-76 -142 -121 -348q-37 -170 -37 -319q0 -180 82 -279q81 -98 219 -98q157 0 284 138q72 77 143 221h41l-81 -380
h-40l-51 90q-180 -117 -339 -117q-139 0 -268 83q-119 76 -177 212q-48 113 -48 234q0 242 136 476q143 245 367 354q123 60 236 60q162 0 269 -125l69 98h41z" />
    <glyph glyph-name="cacute" unicode="&#x107;" horiz-adv-x="799" 
d="M73 0zM697 1256h151q26 0 26 -17q0 -10 -13 -19l-386 -271l-19 23zM720 233l27 -23q-163 -230 -357 -230q-150 0 -243 119q-74 95 -74 227q0 103 45.5 201t125.5 168q151 131 326 131q93 0 151 -46t58 -112q0 -42 -26 -70q-30 -33 -72 -33q-28 0 -49 16q-27 21 -27 54
q0 43 55 76q15 10 15 19q0 23 -26 40q-29 19 -70 19q-113 0 -203 -134q-51 -77 -86 -213q-30 -120 -30 -224q0 -199 157 -199q94 0 185 80q53 47 118 134z" />
    <glyph glyph-name="Ccaron" unicode="&#x10c;" horiz-adv-x="1202" 
d="M122 0zM913 1627l352 100l12 -25l-400 -227l-220 229l18 23zM1240 1365l-84 -396h-41q2 39 2 63q0 144 -52 219q-66 93 -183 93q-218 0 -367 -279q-76 -142 -121 -348q-37 -170 -37 -319q0 -180 82 -279q81 -98 219 -98q157 0 284 138q72 77 143 221h41l-81 -380h-40
l-51 90q-180 -117 -339 -117q-139 0 -268 83q-119 76 -177 212q-48 113 -48 234q0 242 136 476q143 245 367 354q123 60 236 60q162 0 269 -125l69 98h41z" />
    <glyph glyph-name="ccaron" unicode="&#x10d;" horiz-adv-x="799" 
d="M73 0zM599 1123l328 147l17 -26l-387 -295l-170 301l23 20zM720 233l27 -23q-163 -230 -357 -230q-150 0 -243 119q-74 95 -74 227q0 103 45.5 201t125.5 168q151 131 326 131q93 0 151 -46t58 -112q0 -42 -26 -70q-30 -33 -72 -33q-28 0 -49 16q-27 21 -27 54
q0 43 55 76q15 10 15 19q0 23 -26 40q-29 19 -70 19q-113 0 -203 -134q-51 -77 -86 -213q-30 -120 -30 -224q0 -199 157 -199q94 0 185 80q53 47 118 134z" />
    <glyph glyph-name="dmacron" unicode="&#x111;" horiz-adv-x="1014" 
d="M972 1064l-203 -847q-20 -104 -20 -124q0 -47 41 -47q38 0 87 59t106 173l29 -16q-64 -131 -114 -187q-86 -96 -177 -96q-120 0 -130 156q-111 -156 -248 -156q-96 0 -170 70q-95 90 -95 245q0 218 159 385q140 148 294 148q125 0 177 -125l87 362h-288l10 41h287l53 219
h-177l10 41h355l-63 -260h146l-10 -41h-146zM559 789q-63 0 -119 -56q-43 -42 -75 -106.5t-65 -176.5q-51 -172 -51 -268q0 -83 41 -129q33 -36 83 -36q69 0 132 63q63 64 96 174q36 120 59.5 225.5t23.5 149.5q0 72 -38 119q-35 41 -87 41z" />
    <glyph glyph-name="Gbreve" unicode="&#x11e;" horiz-adv-x="1347" 
d="M133 0zM1241 1727h36q-53 -108 -134 -168q-105 -78 -240 -78q-196 0 -196 193q0 21 5 53h29q12 -59 42 -88q45 -42 140 -42q110 0 199 44q54 27 119 86zM1296 1365l-83 -392h-41q1 29 1 44q0 158 -85 244q-37 37 -94.5 60t-114.5 23q-109 0 -203 -75t-165 -218
q-76 -153 -120 -367q-33 -164 -33 -310q0 -195 88 -284q68 -69 185 -69q102 0 172 61q108 95 152 385h-187l9 41h568l-9 -41h-133q-43 -204 -157 -327q-80 -86 -201 -130q-103 -37 -210 -37q-214 0 -348 146q-154 168 -154 438q0 245 134 458q140 222 359 321q125 56 242 56
q197 0 308 -139l79 112h41z" />
    <glyph glyph-name="gbreve" unicode="&#x11f;" horiz-adv-x="901" 
d="M0 0zM852 1256h36q-26 -101 -84 -175q-97 -125 -238 -125q-85 0 -132 54q-56 64 -56 169q0 32 8 77h33q3 -72 36 -115q48 -63 138 -63q100 0 182 74q43 40 77 104zM239 322q-114 -45 -114 -128q0 -36 23 -55q31 -26 128 -26q238 1 313 -13q98 -17 148 -97q39 -63 39 -151
t-37.5 -168t-104.5 -135q-127 -105 -334 -105q-173 0 -282 73q-98 65 -98 173q0 107 107 187q59 44 152 66q-62 12 -96 37q-66 47 -66 126q0 145 194 242q-66 78 -66 166q0 130 90 216q46 44 116.5 70t145.5 26q195 0 256 -163q34 192 133 192q30 0 53 -20q26 -22 26 -56
q0 -31 -20 -53q-19 -21 -48 -21q-39 0 -59 39q-7 16 -16 16q-22 0 -39 -132q-15 -118 -44 -179q-33 -73 -94 -120q-87 -67 -208 -67q-112 0 -198 60zM509 789q-80 0 -135 -83q-33 -49 -56 -145q-17 -73 -17 -130q0 -71 43 -109q31 -27 77 -27q96 0 152 114q23 48 40 117.5
t17 118.5q0 73 -39 113q-29 31 -82 31zM373 -73q-142 0 -207 -39q-60 -35 -90 -98q-22 -46 -22 -95q0 -75 47 -126q73 -77 222 -77q207 0 330 138q63 71 63 157q0 83 -71 111q-72 29 -272 29z" />
    <glyph glyph-name="Idot" unicode="&#x130;" horiz-adv-x="690" 
d="M0 0zM595 1696q46 0 74 -35q24 -29 24 -67q0 -51 -38 -80q-26 -20 -61 -20q-50 0 -82 39q-21 26 -21 64q0 42 28 70q30 29 76 29zM156 41l273 1283h-164l9 41h546l-9 -41h-164l-273 -1283h164l-9 -41h-546l9 41h164z" />
    <glyph glyph-name="dotlessi" unicode="&#x131;" horiz-adv-x="527" 
d="M242 765h-161l10 41h338l-153 -640q-13 -54 -13 -76q0 -49 42 -49q40 0 101 70q42 48 88 156l33 -15q-63 -142 -130 -202q-80 -71 -168 -71q-61 0 -99 35t-38 92q0 34 23 129z" />
    <glyph glyph-name="Lslash" unicode="&#x141;" horiz-adv-x="1129" 
d="M265 552l-193 -132l14 61l192 133l151 710h-164l9 41h546l-9 -41h-164l-124 -584l344 227l-13 -62l-344 -226l-136 -638h234q130 0 191 23q138 57 237 335h41l-85 -399h-1009l9 41h164z" />
    <glyph glyph-name="lslash" unicode="&#x142;" horiz-adv-x="554" 
d="M429 776l178 116l-15 -61l-177 -115l-133 -553q-14 -57 -14 -76q0 -41 44 -41q75 0 191 225l33 -16q-58 -121 -120 -188q-82 -87 -186 -87q-60 0 -95 38q-31 34 -31 86q0 60 44 242l66 275l-179 -121l14 60l179 121l155 643h-164l10 41h341z" />
    <glyph glyph-name="OE" unicode="&#x152;" horiz-adv-x="1977" 
d="M2041 1365l-73 -344h-41q10 56 10 88q0 117 -70 174q-37 30 -111 37q-41 4 -164 4h-161l-127 -596h88q136 1 194 81q31 46 54 156h41l-115 -542h-41q23 103 23 148q0 66 -50 96q-35 20 -117 20h-85l-138 -646h156q159 1 239 19q225 52 307 352h41l-88 -412h-883l25 120
q-182 -147 -355 -147q-180 0 -312 137q-159 164 -159 430q0 208 103 404q109 207 287 331q167 117 331 117q220 0 336 -186l34 159h821zM842 1344q-88 0 -168 -62q-79 -61 -140 -170.5t-110 -278.5q-72 -251 -72 -458q0 -173 70 -266q65 -88 178 -88q58 0 117 26.5t102 71.5
q117 125 193 402q74 267 74 487q0 168 -66 253q-66 83 -178 83z" />
    <glyph glyph-name="oe" unicode="&#x153;" horiz-adv-x="1392" 
d="M1274 211l29 -23q-172 -208 -353 -208q-156 0 -257 136q-136 -136 -296 -136q-126 0 -219 95q-104 107 -104 258q0 106 56.5 212.5t152.5 181.5q127 100 257 100q159 0 256 -142q168 141 362 141q116 0 188 -73q45 -45 45 -110q0 -135 -178 -209q-143 -60 -375 -65
q-14 -90 -14 -152q0 -117 58 -166q39 -33 97 -33q124 0 295 193zM846 402q163 15 263 76q88 54 126 139q18 40 18 72q0 45 -38 74q-31 25 -75 25q-200 0 -294 -386zM546 789q-78 0 -136 -69q-68 -82 -117 -265q-42 -154 -42 -263q0 -85 42 -131q39 -43 98 -43q124 0 190 165
q46 115 77 261q20 100 20 173q0 91 -42 135q-35 37 -90 37z" />
    <glyph glyph-name="Scedilla" unicode="&#x15e;" horiz-adv-x="1041" 
d="M455 -25l-74 -112q22 1 35 1q79 0 123 -44q27 -26 27 -65q0 -47 -42 -82q-58 -48 -170 -48q-102 0 -159 43q-36 27 -36 63q0 22 18 33q11 7 24 7q38 0 38 -39q0 -5 -3 -21q-2 -7 -2 -12q0 -15 22 -25.5t55 -10.5q54 0 87 33q29 28 29 65q0 73 -107 86l95 133
q-144 29 -253 129l-109 -109h-41l94 442h41q-2 -35 -2 -52q0 -144 84 -242q49 -57 129 -94q76 -34 145 -34q72 0 144.5 35t119.5 92q52 64 52 148q0 94 -77 169q-57 56 -202 143q-128 78 -186 128q-112 98 -112 250q0 91 36.5 176t99.5 139q108 93 268 93q169 0 289 -124
l78 96h40l-81 -382h-41q-1 89 -10 134q-23 124 -125 185q-71 43 -155 43q-110 0 -189 -64q-88 -71 -88 -171q0 -78 76 -138q42 -33 169 -105q152 -87 216 -140q131 -109 131 -278q0 -140 -76 -261q-91 -143 -243 -193q-69 -22 -142 -22q-16 0 -40 2z" />
    <glyph glyph-name="scedilla" unicode="&#x15f;" horiz-adv-x="673" 
d="M307 -18l-78 -117q20 1 31 1q82 0 125 -43q26 -26 26 -63q0 -47 -42 -81q-56 -47 -166 -47q-100 0 -156 42q-35 27 -35 62q0 40 42 40q37 0 37 -38q0 -6 -4 -21q-2 -8 -2 -13q0 -14 22 -24.5t54 -10.5q53 0 86 32q28 28 28 65q0 72 -104 84l91 130q-89 3 -151 42
q-78 51 -78 127q0 39 25 62q20 19 50 19q33 0 52 -21q19 -22 19 -51q0 -41 -32 -75q-10 -11 -10 -17q0 -13 12 -21q37 -25 110 -25q90 0 149 49q46 38 46 94q0 37 -26 71q-20 27 -72 68q-84 65 -132 111q-94 88 -94 173q0 110 105 185q79 56 178 56q95 0 156 -52
q40 -34 40 -81q0 -29 -16 -48q-21 -26 -57 -26q-27 0 -45 16q-19 18 -19 45q0 21 15 41t15 30q0 38 -88 38q-69 0 -114 -32q-43 -30 -43 -80q0 -46 35 -86q24 -26 99 -79q97 -69 137 -113q56 -62 56 -144q0 -85 -57 -159q-76 -97 -220 -115z" />
    <glyph glyph-name="Scaron" unicode="&#x160;" horiz-adv-x="1041" 
d="M12 0zM1053 1365l-81 -382h-41q-1 89 -10 134q-23 124 -125 185q-71 43 -155 43q-110 0 -189 -64q-88 -71 -88 -171q0 -78 76 -138q42 -33 169 -105q151 -86 216 -140q131 -109 131 -278q0 -178 -117 -316q-136 -160 -342 -160q-181 0 -335 136l-109 -109h-41l94 442h41
q-2 -35 -2 -52q0 -143 84 -241q49 -58 129 -94q76 -34 145 -34q72 0 144.5 35t119.5 92q52 64 52 148q0 94 -77 169q-57 55 -202 143q-128 78 -186 128q-112 97 -112 250q0 90 36.5 175t99.5 139q108 93 268 93q169 0 289 -124l78 96h40zM721 1627l352 100l12 -25l-400 -227
l-220 229l18 23z" />
    <glyph glyph-name="scaron" unicode="&#x161;" horiz-adv-x="673" 
d="M33 0zM109 230q32 0 51 -21t19 -51q0 -41 -32 -75q-10 -10 -10 -17q0 -12 12 -20q37 -25 110 -25q91 0 150 49q46 38 46 94q0 37 -26 71q-20 27 -73 68q-81 62 -132 110q-94 89 -94 173q0 110 105 185q79 56 178 56q95 0 155 -52q41 -34 41 -81q0 -29 -16 -48
q-21 -26 -57 -26q-27 0 -45 16q-19 18 -19 45q0 21 15 41t15 30q0 38 -88 38q-69 0 -114 -32q-43 -30 -43 -80q0 -47 35 -86q24 -26 99 -79q98 -69 138 -113q56 -62 56 -144q0 -116 -95 -197q-91 -79 -223 -79q-119 0 -191 71q-43 43 -43 99q0 38 25 61q20 19 51 19z
M455 1123l328 147l17 -26l-387 -295l-170 301l23 20z" />
    <glyph glyph-name="Ydieresis" unicode="&#x178;" horiz-adv-x="1220" 
d="M836 641l-128 -600h164l-9 -41h-546l9 41h164l124 585l-259 698h-162l9 41h569l-8 -41h-177l228 -628l414 628h-187l9 41h399l-9 -41h-155zM690 1696q46 0 74 -35q24 -29 24 -67q0 -51 -38 -80q-27 -20 -61 -20q-50 0 -82 39q-21 26 -21 64q0 42 28 70q30 29 76 29z
M1112 1696q46 0 74 -35q24 -29 24 -67q0 -51 -38 -80q-27 -20 -61 -20q-50 0 -82 39q-21 26 -21 64q0 42 28 70q30 29 76 29z" />
    <glyph glyph-name="Zcaron" unicode="&#x17d;" horiz-adv-x="1077" 
d="M0 0zM1189 1324l-953 -1283h269q154 1 216 20q167 53 277 365h41l-91 -426h-966v54l948 1270h-264q-130 -1 -184 -21q-136 -48 -216 -297h-41l77 359h895zM783 1627l352 100l12 -25l-400 -227l-220 229l18 23z" />
    <glyph glyph-name="zcaron" unicode="&#x17e;" horiz-adv-x="785" 
d="M18 0zM176 630l-58 -132l-36 16l132 299q168 -62 353 -62q57 0 139 6q-1 10 -1 16q0 32 23 53q9 8 20 8q25 0 25 -30q0 -33 -69 -104l-507 -523q31 5 59 5q97 0 244 -57q75 -29 108 -29q48 0 75 36q16 21 16 49q0 24 -9 29q-5 3 -26 3q-25 0 -44 15q-20 16 -20 43t18 44
q17 17 43 17q32 0 53 -28q24 -32 24 -80q0 -70 -46 -135q-73 -102 -192 -102q-98 0 -253 50q-109 35 -130 35q-37 0 -37 -41q0 -3 2 -17v-4q0 -37 -33 -37q-15 0 -24 11q-7 9 -7 19q0 28 40 77q34 41 155 163l417 437q-195 -59 -349 -59q-50 0 -105 9zM544 1123l328 147
l17 -26l-387 -295l-170 301l23 20z" />
    <glyph glyph-name="florin" unicode="&#x192;" 
d="M447 608h-180l12 41h180q59 215 96 305q91 219 241 326q90 65 188 65q74 0 110 -38q26 -27 26 -65q0 -42 -31 -71q-28 -26 -67 -26q-29 0 -48 18q-21 19 -21 48q0 37 37 58q15 9 15 23q0 19 -25 19q-51 0 -94 -39q-70 -63 -123 -198q-25 -64 -62 -195l-65 -230h188
l-12 -41h-187l-147 -522q-58 -205 -101 -304q-90 -206 -216 -303q-86 -66 -183 -66q-69 0 -111 33q-35 27 -35 69q0 34 23 60q23 24 56 24q30 0 48 -19q14 -15 14 -39q0 -25 -20 -51q-10 -13 -10 -20q0 -23 50 -23q52 0 99 48q40 41 73 126q18 48 72 239z" />
    <glyph glyph-name="circumflex" unicode="&#x2c6;" 
d="M722 1096l-328 -147l-17 26l387 295l170 -302l-22 -19z" />
    <glyph glyph-name="caron" unicode="&#x2c7;" 
d="M640 1123l328 147l17 -26l-387 -295l-170 301l23 20z" />
    <glyph glyph-name="macron" unicode="&#x2c9;" 
d="M402 1122h546l-17 -70h-546z" />
    <glyph glyph-name="breve" unicode="&#x2d8;" 
d="M938 1256h36q-26 -101 -84 -175q-97 -125 -238 -125q-85 0 -132 54q-56 64 -56 169q0 32 8 77h33q3 -72 36 -115q48 -63 138 -63q100 0 182 74q43 40 77 104z" />
    <glyph glyph-name="dotaccent" unicode="&#x2d9;" 
d="M668 1209q41 0 70 -30q30 -31 30 -72q0 -42 -30 -73q-29 -30 -72 -30t-73 30t-30 72q0 44 30 73q31 30 75 30z" />
    <glyph glyph-name="ring" unicode="&#x2da;" 
d="M669 1260q68 0 115 -54q37 -43 37 -103q0 -66 -45 -110q-44 -44 -110 -44q-73 0 -119 54q-36 42 -36 101q0 71 52 116q44 40 106 40zM664 1202q-43 0 -72 -39q-20 -28 -20 -59q0 -43 33 -73q26 -24 60 -24q43 0 72 35q23 28 23 63q0 39 -30 70q-27 27 -66 27z" />
    <glyph glyph-name="ogonek" unicode="&#x2db;" 
d="M919 0q-134 -106 -134 -195q0 -79 99 -79q41 0 97 18l-6 -35q-92 -44 -176 -44q-67 0 -106 30q-37 28 -37 76q0 138 211 229h52z" />
    <glyph glyph-name="tilde" unicode="&#x2dc;" 
d="M945 1185l29 -21q-104 -142 -215 -142q-37 0 -90 20l-70 27q-49 19 -92 19q-46 0 -79 -25q-14 -11 -39 -38l-27 22q44 67 86 97q61 44 138 44q41 0 94 -21l72 -29q39 -15 79 -15q55 0 114 62z" />
    <glyph glyph-name="hungarumlaut" unicode="&#x2dd;" 
d="M929 1256h135q25 0 25 -17q0 -10 -12 -19l-362 -271l-19 23zM658 1256h135q25 0 25 -17q0 -10 -12 -19l-362 -271l-19 23z" />
    <glyph glyph-name="pi" unicode="&#x3c0;" 
d="M1194 961v-125h-294q-32 -80 -41 -109q-23 -74 -22 -130v-326q0 -97 8 -126q16 -60 78 -60q1 0 95 20v-37l-244 -88q-20 -7 -25 -7q-15 0 -38 23t-39 53q-24 47 -24 127v317q0 73 25 145q10 24 65 110q37 63 56 88h-346l-4 -234q-4 -200 -47 -472q-15 -90 -37 -125
q-28 -44 -69 -44q-39 0 -65 32q-21 28 -21 59q0 44 44 141q57 149 78 316q25 218 26 326q-114 -1 -183 -39q-65 -38 -137 -132l-28 29l136 188q34 47 85 66q35 14 109 14h859z" />
    <glyph glyph-name="endash" unicode="&#x2013;" 
d="M109 478h833l-29 -136h-833z" />
    <glyph glyph-name="emdash" unicode="&#x2014;" horiz-adv-x="1120" 
d="M13 478h1119l-29 -136h-1119z" />
    <glyph glyph-name="quoteleft" unicode="&#x2018;" horiz-adv-x="516" 
d="M539 1386l20 -32q-247 -139 -247 -270q0 -28 21 -28q8 0 20 14q29 33 79 33q43 0 70 -31q28 -31 28 -76q0 -53 -41 -88q-36 -31 -86 -31q-61 0 -106 48q-50 52 -50 124q0 110 104 212q68 66 188 125z" />
    <glyph glyph-name="quoteright" unicode="&#x2019;" horiz-adv-x="516" 
d="M282 877l-20 32q247 137 247 269q0 28 -21 28q-8 0 -20 -14q-28 -32 -78 -32q-44 0 -71 31q-28 31 -28 76q0 52 41 87q36 31 86 31q60 0 106 -48q50 -52 50 -124q0 -110 -105 -211q-67 -66 -187 -125z" />
    <glyph glyph-name="quotesinglbase" unicode="&#x201a;" horiz-adv-x="516" 
d="M34 -290l-20 32q247 138 247 270q0 28 -21 28q-8 0 -20 -14q-28 -33 -79 -33q-43 0 -70 31q-28 31 -28 76q0 53 41 88q36 31 86 31q61 0 106 -48q50 -52 50 -124q0 -110 -105 -212q-67 -66 -187 -125z" />
    <glyph glyph-name="quotedblleft" unicode="&#x201c;" horiz-adv-x="920" 
d="M943 1386l20 -32q-247 -139 -247 -270q0 -28 21 -28q8 0 20 14q28 33 79 33q43 0 70 -31q28 -31 28 -76q0 -53 -41 -88q-36 -31 -86 -31q-61 0 -106 48q-50 52 -50 124q0 110 104 212q67 65 188 125zM539 1386l20 -33q-247 -139 -247 -269q0 -28 21 -28q8 0 20 14
q28 33 79 33q43 0 70 -31q28 -31 28 -76q0 -53 -41 -88q-36 -31 -86 -31q-61 0 -106 48q-50 52 -50 124q0 110 104 212q67 65 188 125z" />
    <glyph glyph-name="quotedblright" unicode="&#x201d;" horiz-adv-x="920" 
d="M282 877l-20 32q247 137 247 269q0 28 -21 28q-8 0 -20 -14q-28 -32 -78 -32q-44 0 -71 31q-28 31 -28 76q0 52 41 87q36 31 86 31q60 0 106 -48q50 -52 50 -124q0 -110 -105 -211q-67 -66 -187 -125zM686 877l-20 32q247 137 247 269q0 28 -21 28q-8 0 -20 -14
q-28 -32 -78 -32q-44 0 -71 31q-28 31 -28 76q0 52 41 87q36 31 86 31q60 0 106 -48q50 -52 50 -124q0 -109 -105 -211q-67 -66 -187 -125z" />
    <glyph glyph-name="quotedblbase" unicode="&#x201e;" horiz-adv-x="920" 
d="M34 -290l-20 32q247 138 247 270q0 28 -21 28q-8 0 -20 -14q-28 -33 -79 -33q-43 0 -70 31q-28 31 -28 76q0 53 41 88q36 31 86 31q61 0 106 -48q50 -52 50 -124q0 -110 -105 -212q-67 -66 -187 -125zM438 -290l-20 32q247 138 247 270q0 28 -21 28q-8 0 -20 -14
q-28 -33 -79 -33q-43 0 -70 31q-28 31 -28 76q0 53 41 88q36 31 86 31q61 0 106 -48q50 -52 50 -124q0 -110 -105 -212q-67 -66 -187 -125z" />
    <glyph glyph-name="dagger" unicode="&#x2020;" horiz-adv-x="1092" 
d="M578 726q-108 -21 -247 -71q-56 -20 -113 -20q-48 0 -81 28q-36 32 -36 83q0 39 21 66q28 35 79 35q55 0 181 -39q123 -37 204 -51q12 100 11 244q1 162 9 218q27 166 120 166q49 0 77 -33q27 -31 27 -79q0 -54 -34 -145q-10 -29 -87 -180q-71 -141 -89 -189q47 4 75 8
q66 11 174 47q96 32 144 32q55 0 89 -35q27 -29 27 -74q0 -42 -25 -69q-30 -34 -85 -34q-54 0 -167 36q-170 51 -238 53q-31 -168 -61 -502q-11 -128 -34 -276.5t-42 -220.5q-33 -126 -115 -126q-36 0 -62 24q-32 28 -32 83q0 61 40 213q36 138 170 507q77 209 100 301z" />
    <glyph glyph-name="daggerdbl" unicode="&#x2021;" horiz-adv-x="1092" 
d="M634 826q-13 -105 -13 -190q0 -74 18 -146q-104 -169 -142 -324q50 5 75 8q64 11 174 47q96 32 144 32q55 0 89 -36q27 -28 27 -73q0 -42 -25 -69q-30 -34 -85 -34q-53 0 -167 36q-118 35 -160 44q-29 6 -82 7q1 -114 2 -195q1 -73 1 -100q0 -136 -40 -193
q-30 -44 -96 -44q-34 0 -57 20q-34 28 -34 81q0 54 47.5 160t147.5 276q-83 -13 -250 -71q-55 -20 -113 -20q-48 0 -81 28q-36 31 -36 83q0 40 21 66q28 35 79 35q56 0 181 -39q121 -36 202 -50q12 74 12 177q0 65 -20 149q46 76 83.5 165t58.5 173q-98 -18 -247 -71
q-56 -20 -113 -20q-48 0 -81 28q-36 32 -36 83q0 39 21 66q28 35 79 35q55 0 181 -39q118 -36 205 -50q5 99 5 157l-1 155q0 114 40 170q29 42 77 42q42 0 71 -27q28 -27 28 -73q0 -72 -82 -233q-24 -47 -103 -190q48 5 73 8q65 10 174 47q95 32 144 32q55 0 89 -35
q27 -29 27 -74q0 -42 -25 -69q-30 -34 -85 -34q-54 0 -167 36q-175 52 -235 53z" />
    <glyph glyph-name="bullet" unicode="&#x2022;" horiz-adv-x="1365" 
d="M689 978q113 0 196 -83q84 -83 84 -201t-84 -201q-82 -83 -200 -83t-200 83q-84 83 -84 200q0 121 84 202q85 83 204 83z" />
    <glyph glyph-name="ellipsis" unicode="&#x2026;" horiz-adv-x="1560" 
d="M210 226q49 0 84 -36q36 -37 36 -87t-36 -87q-35 -36 -86 -36q-52 0 -88 36t-36 87q0 52 36 87q37 36 90 36zM730 226q49 0 84 -36q36 -37 36 -87t-36 -87q-35 -36 -86 -36q-52 0 -88 36t-36 87q0 52 36 87q37 36 90 36zM1250 226q49 0 84 -36q36 -37 36 -87t-36 -87
q-35 -36 -86 -36q-52 0 -88 36t-36 87q0 52 36 87q37 36 90 36z" />
    <glyph glyph-name="perthousand" unicode="&#x2030;" horiz-adv-x="2188" 
d="M530 1337q79 0 138 -52q85 -76 85 -208q0 -82 -33.5 -167.5t-90.5 -145.5q-101 -109 -227 -109q-78 0 -137 45q-93 72 -93 212q0 82 31.5 162.5t85.5 140.5q112 122 241 122zM523 1299q-90 0 -140 -115q-38 -90 -66 -236q-18 -90 -18 -144q0 -111 105 -111q57 0 97 41
q47 48 96 259q31 133 31 194q0 112 -105 112zM1223 1326l-769 -1326h-65l769 1326h65zM1217 670q78 0 138 -53q85 -75 85 -207q0 -82 -33.5 -167.5t-90.5 -145.5q-101 -109 -227 -109q-78 0 -137 45q-93 72 -93 212q0 82 31.5 162.5t85.5 140.5q112 122 241 122zM1210 632
q-90 0 -140 -115q-39 -92 -67 -236q-17 -90 -17 -144q0 -111 105 -111q57 0 97 41q47 48 96 259q31 133 31 194q0 112 -105 112zM1897 670q78 0 138 -53q85 -75 85 -207q0 -82 -33.5 -167.5t-90.5 -145.5q-102 -109 -227 -109q-79 0 -138 45q-93 72 -93 212q0 82 31.5 162.5
t85.5 140.5q112 122 242 122zM1890 632q-91 0 -141 -115q-38 -91 -66 -236q-18 -90 -18 -144q0 -111 106 -111q57 0 97 41q47 48 96 259q31 133 31 194q0 112 -105 112z" />
    <glyph glyph-name="guilsinglleft" unicode="&#x2039;" horiz-adv-x="524" 
d="M88 415l219 190h112l-227 -190l187 -200h-104z" />
    <glyph glyph-name="guilsinglright" unicode="&#x203a;" horiz-adv-x="524" 
d="M433 405l-218 -190h-113l227 190l-187 199h104z" />
    <glyph glyph-name="franc" unicode="&#x20a3;" horiz-adv-x="1338" 
d="M299 41h150l-9 -41h-485l9 41h143l265 1244h-144l9 41h847l-83 -390h-41q10 74 10 119q0 147 -101 201q-46 25 -100 27q-32 2 -94 2h-112l-122 -574h39q137 1 195 78q30 45 53 152h40l-112 -527h-41q22 99 22 142q0 66 -51 94q-35 20 -116 20h-38zM1063 785l-53 -219
q132 240 261 240q40 0 65 -21q29 -25 29 -63t-25 -63q-25 -27 -62 -27q-53 0 -84 59q-11 19 -22 19q-22 0 -62 -51q-112 -145 -174 -403l-62 -256h-157l179 744h-123l10 41h280z" />
    <glyph glyph-name="trademark" unicode="&#x2122;" horiz-adv-x="1772" 
d="M360 625l150 703h-18q-84 0 -121 -16q-98 -42 -142 -194h-39l52 247h699l-53 -247h-39q6 41 6 66q0 84 -46 118q-36 26 -130 26h-18l-149 -703h103l-8 -38h-358l8 38h103zM929 625l149 702h-103l8 38h272l68 -552l300 552h276l-8 -38h-103l-150 -702h104l-9 -38h-358
l9 38h103l142 668l-387 -706h-45l-83 706l-142 -668h104l-9 -38h-250l9 38h103z" />
    <glyph glyph-name="Omega" unicode="&#x2126;" horiz-adv-x="1365" 
d="M1477 265l-78 -265h-577v111q94 49 144.5 88t95.5 97q142 184 142 440q0 239 -119 412q-122 176 -346 176q-243 0 -368 -214q-96 -162 -96 -368q0 -138 47 -266.5t132 -221.5q67 -74 203 -143v-111h-579l-77 265h40q29 -86 83 -117q45 -27 114 -30l66 -2l223 -9v13
q-102 38 -159.5 70t-111.5 81q-103 93 -160 216.5t-57 253.5q0 171 98 329q197 317 603 317q342 0 536 -221q163 -187 163 -419q0 -218 -138 -392q-98 -124 -241 -190q-46 -21 -108 -45v-13l239 9q80 4 111 10q76 18 113 88q8 14 22 51h40z" />
    <glyph glyph-name="partialdiff" unicode="&#x2202;" 
d="M349 1376l20 36q195 -77 336 -211q131 -124 225 -347q90 -215 90 -386q0 -205 -119 -343q-134 -155 -336 -155q-172 0 -295 112q-154 141 -154 365q0 169 92 299q72 101 192 147q81 31 158 31q55 0 110.5 -17t87.5 -43q6 -5 68 -69q-54 158 -114 251q-108 160 -234 248
q-77 55 -127 82zM570 873q-86 0 -151 -66q-44 -43 -77 -136q-40 -112 -40 -223q0 -134 54 -266q37 -90 111 -135q43 -26 97 -26q77 0 150 69q49 46 80 135q39 110 39 235q0 147 -53 261q-70 152 -210 152z" />
    <glyph glyph-name="Delta" unicode="&#x2206;" horiz-adv-x="1365" 
d="M788 1396l630 -1396h-1359l627 1396h102zM678 1181l-403 -900q-28 -63 -28 -95q0 -33 24 -50q17 -12 72 -12h798z" />
    <glyph glyph-name="product" unicode="&#x220f;" horiz-adv-x="1365" 
d="M61 1365h1355v-39h-47q-91 0 -117 -37q-19 -27 -19 -126v-1439q0 -98 19 -126q25 -37 112 -37h50v-39h-571v39h44q92 1 117 37q19 28 19 126v1439q0 98 -19 126q-26 37 -117 37h-294q-90 0 -117 -37q-19 -28 -19 -126v-1439q0 -98 19 -126q26 -37 113 -37h49v-39h-571v39
h44q92 1 117 37q19 28 19 126v1439q0 99 -19 126q-26 37 -117 37h-50v39z" />
    <glyph glyph-name="summation" unicode="&#x2211;" horiz-adv-x="1365" 
d="M162 1365h1077v-336h-39q-16 138 -79 203q-46 47 -118 63q-53 12 -141 12h-455l414 -770l-494 -899h538q117 0 180 20q185 59 239 296h39l-68 -432h-1093l505 919z" />
    <glyph glyph-name="minus" unicode="&#x2212;" 
d="M148 698h833v-72h-833v72z" />
    <glyph glyph-name="fraction" unicode="&#x2215;" horiz-adv-x="287" 
d="M613 1326l-770 -1326h-65l770 1326h65z" />
    <glyph glyph-name="periodcentered" unicode="&#x2219;" horiz-adv-x="520" 
d="M262 533q50 0 84 -36q36 -37 36 -87t-36 -87q-35 -36 -86 -36q-52 0 -88 36t-36 87q0 52 36 87q37 36 90 36z" />
    <glyph glyph-name="radical" unicode="&#x221a;" horiz-adv-x="1365" 
d="M1387 1686v-62h-239l-379 -1624h-196l-176 731h-307v62h468l161 -690l372 1583h296z" />
    <glyph glyph-name="infinity" unicode="&#x221e;" horiz-adv-x="1365" 
d="M688 568q-56 -86 -99 -132q-90 -97 -209 -97q-127 0 -218 94q-92 95 -92 240q0 165 107 274q96 98 232 98q194 0 347 -248q20 31 23 36q49 78 74 108.5t57 52.5q76 53 170 53q140 0 236 -104q92 -101 92 -250q0 -165 -109 -272q-105 -102 -248 -102q-133 0 -253 111
q-62 57 -110 138zM788 750q84 -132 144 -186q106 -95 218 -95q77 0 133 51q70 64 70 168q0 99 -69 154q-76 62 -207 62q-105 0 -180 -43q-45 -25 -76 -64q-34 -44 -33 -47zM649 625q-68 107 -116 161q-94 107 -219 107q-77 0 -128 -52q-62 -64 -62 -159t68 -147
q72 -56 191 -56q92 0 157 37q43 25 73 60q38 46 36 49z" />
    <glyph glyph-name="integral" unicode="&#x222b;" horiz-adv-x="1025" 
d="M674 1007v-988q0 -166 -11 -233q-29 -174 -138 -257q-84 -64 -203 -64q-127 0 -204 66q-77 65 -77 157q0 55 37 92q35 35 86 35q48 0 83 -34q34 -32 34 -76q0 -29 -15 -54q-17 -29 -17 -49q0 -19 11 -35q19 -25 56 -25q67 0 107 83q41 86 41 234v1033q0 171 11 238
q29 174 138 257q84 64 203 64q127 0 204 -66q77 -65 77 -157q0 -54 -37 -92q-34 -35 -85 -35q-49 0 -84 34q-34 32 -34 76q0 29 15 54q17 28 17 47q0 26 -16 43q-19 19 -51 19q-71 0 -110 -91q-19 -43 -26 -105q-12 -107 -12 -171z" />
    <glyph glyph-name="approxequal" unicode="&#x2248;" 
d="M998 928l24 -14q-45 -67 -110 -116q-91 -68 -178 -68q-47 0 -141 30q-176 57 -254 57t-134 -55q-23 -21 -66 -72l-25 15q139 186 296 186q62 0 198 -45q111 -37 169 -37q125 0 221 119zM998 619l24 -15q-44 -66 -110 -116q-91 -68 -178 -68q-47 0 -141 31
q-176 57 -254 57t-134 -55q-23 -22 -66 -73l-25 15q139 187 296 187q61 0 198 -46q111 -37 169 -37q124 0 221 120z" />
    <glyph glyph-name="notequal" unicode="&#x2260;" 
d="M461 517h-309v72h342l69 147h-411v72h444l116 247l65 -30l-101 -217h309v-72h-342l-69 -147h411v-72h-444l-116 -247l-65 30z" />
    <glyph glyph-name="lessequal" unicode="&#x2264;" 
d="M989 1240v-57l-687 -451l687 -457v-151l-842 558v11zM147 54h842v-54h-842v54z" />
    <glyph glyph-name="greaterequal" unicode="&#x2265;" 
d="M147 54h842v-54h-842v54zM147 124v57l687 452l-687 456v151l842 -559v-11z" />
    <glyph glyph-name="lozenge" unicode="&#x25ca;" horiz-adv-x="1365" 
d="M683 1419l532 -736l-532 -736l-532 736zM683 1237l-404 -554l404 -555l403 555z" />
    <glyph glyph-name="apple" unicode="&#xf000;" horiz-adv-x="1365" 
d="M983 1416q0 -140 -77 -237q-92 -114 -227 -118q3 147 83 239q91 104 221 116zM1276 935q-63 -48 -94 -86q-71 -88 -71 -199q0 -145 107 -243q39 -36 97 -62q-66 -161 -140 -257q-109 -143 -204 -143q-50 0 -132 38q-49 23 -106 23q-73 0 -120 -17q-14 -6 -58 -24
q-51 -22 -94 -22q-52 0 -111.5 44.5t-111.5 122.5q-172 255 -172 526q0 94 32.5 182t89.5 151q99 108 259 108q65 0 173 -41q56 -21 86 -21t119 33q91 33 155 33q190 0 296 -146z" />
    <glyph glyph-name="fi" unicode="&#xf001;" horiz-adv-x="1016" 
d="M918 806l-153 -640q-14 -57 -14 -75q0 -50 42 -50q40 0 101 70q43 48 88 156l34 -15q-63 -142 -130 -202q-80 -71 -169 -71q-60 0 -99 35q-38 35 -38 91q0 31 24 130l127 530h-284l-153 -638q-49 -205 -88 -304q-81 -206 -204 -303q-83 -66 -180 -66q-68 0 -112 33
q-38 28 -38 72q0 33 21 57t54 24q31 0 49 -19q16 -17 16 -42q0 -24 -18 -48q-9 -12 -9 -19q0 -24 51 -24q52 0 97 48q38 41 67 126q17 49 62 239l207 864h-180l10 41h180q65 249 169 389q142 191 327 191q107 0 166 -60q44 -46 44 -106q0 -41 -22 -70q-30 -39 -81 -39
q-37 0 -63 25q-29 28 -29 73q0 56 44 83q25 16 25 27q0 14 -23.5 23.5t-59.5 9.5q-188 0 -292 -432l-27 -114h461z" />
    <glyph glyph-name="fl" unicode="&#xf002;" horiz-adv-x="1023" 
d="M1058 1386l-294 -1223q-14 -58 -14 -76q0 -41 44 -41q77 0 191 225l33 -15q-58 -123 -120 -189q-82 -87 -186 -87q-60 0 -95 38q-31 34 -31 86q0 62 44 242l163 677q48 200 48 251q0 37 -28 59q-24 19 -60 19q-88 0 -149 -95q-61 -93 -120 -337l-27 -114h187l-10 -41
h-187l-153 -638q-49 -205 -88 -304q-81 -206 -204 -303q-83 -66 -180 -66q-68 0 -112 33q-38 28 -38 72q0 33 21 57t54 24q31 0 49 -19q16 -17 16 -42q0 -24 -18 -48q-9 -12 -9 -19q0 -24 51 -24q52 0 97 48q38 41 67 126q17 49 62 239l207 864h-180l10 41h180
q65 249 169 389q142 191 327 191q53 0 106 -21z" />
    <glyph glyph-name="glyph172" 
 />
    <glyph glyph-name="glyph262" 
d="M1036 1727h36q-53 -108 -134 -168q-105 -78 -240 -78q-196 0 -196 193q0 21 5 53h29q12 -59 42 -88q45 -42 140 -42q110 0 199 44q54 27 119 86z" />
    <glyph glyph-name="glyph263" 
d="M769 1627l352 100l12 -25l-400 -227l-220 229l18 23z" />
    <glyph glyph-name="glyph264" 
d="M1069 1676l29 -20q-107 -152 -223 -152q-37 0 -92 22l-73 28q-48 19 -94 19q-48 0 -82 -26q-16 -11 -41 -40l-28 22q94 150 232 150q44 0 98 -22l74 -30q42 -17 82 -17q44 0 80 29q13 11 38 37z" />
    <glyph glyph-name="glyph265" 
d="M625 1713l193 -218l-18 -21l-350 193q-25 14 -25 28q0 18 24 18h176z" />
    <glyph glyph-name="glyph266" 
d="M892 1713h206q29 0 29 -18q0 -16 -30 -28l-452 -193l-12 26z" />
    <glyph glyph-name="glyph267" 
d="M560 1696q46 0 74 -35q24 -29 24 -67q0 -51 -38 -80q-26 -20 -61 -20q-50 0 -82 39q-21 26 -21 64q0 42 28 70q30 29 76 29zM982 1696q46 0 74 -35q24 -29 24 -67q0 -51 -38 -80q-26 -20 -60 -20q-51 0 -83 39q-21 26 -21 64q0 42 28 70q30 29 76 29z" />
    <glyph glyph-name="glyph268" 
d="M768 1575l-353 -100l-11 25l400 227l220 -229l-19 -23z" />
    <glyph glyph-name="glyph269" 
d="M518 1209q41 0 70 -30q30 -31 30 -72q0 -42 -30 -73q-29 -30 -72 -30t-73 30t-30 72q0 44 30 73q31 30 75 30zM820 1209q41 0 70 -30q30 -31 30 -72q0 -42 -30 -73q-29 -30 -71 -30q-44 0 -74 30t-30 72q0 44 30 73q31 30 75 30z" />
    <glyph glyph-name="glyph270" 
d="M773 1759q68 0 115 -55q37 -42 37 -103q0 -66 -45 -110q-44 -44 -110 -44q-73 0 -119 54q-36 42 -36 102q0 70 52 116q44 40 106 40zM768 1701q-43 0 -72 -40q-20 -27 -20 -59q0 -42 33 -73q26 -24 60 -24q43 0 72 35q23 28 23 64q0 39 -30 70q-27 27 -66 27z" />
    <glyph glyph-name="glyph271" 
d="M772 1696q46 0 74 -35q24 -29 24 -67q0 -51 -38 -80q-26 -20 -61 -20q-50 0 -82 39q-21 26 -21 64q0 42 28 70q30 29 76 29z" />
    <glyph glyph-name="glyph272" horiz-adv-x="512" 
 />
    <glyph glyph-name=".ttfautohint" horiz-adv-x="512" 
d="M0 0z" />
    </font>
</defs>
</svg>
